<svg width="192" height="153" viewBox="0 0 192 153" fill="none" xmlns="http://www.w3.org/2000/svg">
<path d="M56.1528 144.641C39.4743 136.557 26.3246 122.657 19.1777 105.556C12.0307 88.4555 11.3791 69.3324 17.3455 51.7848C23.3118 34.2372 35.4848 19.4746 51.5744 10.2744C67.6639 1.07423 86.5609 -1.92937 104.71 1.8287C122.859 5.58677 139.01 15.8475 150.123 30.6804C161.236 45.5133 166.546 63.8959 165.053 82.37C163.561 100.844 155.369 118.136 142.019 130.992C128.669 143.849 111.081 151.384 92.5635 152.18L92.4596 149.762C110.387 148.992 127.415 141.697 140.34 129.25C153.265 116.802 161.196 100.061 162.641 82.1751C164.086 64.2893 158.946 46.4919 148.186 32.1312C137.427 17.7706 121.791 7.8366 104.219 4.19818C86.6481 0.559766 68.3528 3.46773 52.7755 12.375C37.1982 21.2823 25.4128 35.5748 19.6364 52.5638C13.86 69.5527 14.4909 88.0669 21.4103 104.623C28.3297 121.18 41.0607 134.637 57.2081 142.463L56.1528 144.641Z" fill="currentColor"/>
<line x1="0.299988" y1="151" x2="93.3" y2="151" stroke="currentColor" stroke-width="2.5"/>
<line x1="121.3" y1="151" x2="191.3" y2="151" stroke="currentColor" stroke-width="2.5"/>
<path fill-rule="evenodd" clip-rule="evenodd" d="M64 100.694C64 100.281 64 100.25 64.2998 100.25C64.7998 100.25 65.3871 100.25 65.7998 100.25L112.3 100.25C112.713 100.25 112.8 100.25 113.3 100.25C113.8 100.25 113.8 100.281 113.8 100.694C113.8 101.107 113.636 101.502 113.344 101.794C113.052 102.086 112.656 102.25 112.244 102.25H65.5562C65.1435 102.25 64.7477 102.086 64.4558 101.794C64.164 101.502 64 101.107 64 100.694Z" fill="currentColor"/>
<path fill-rule="evenodd" clip-rule="evenodd" d="M69.2996 67.2499V100.25H78.7996V67.2499H69.2996ZM68.6683 64.8998C68.2556 64.8998 67.8597 65.0637 67.5679 65.3556C67.276 65.6474 67.1121 66.0433 67.1121 66.456V100.694C67.1121 101.106 67.276 101.502 67.5679 101.794C67.8597 102.086 68.2556 102.25 68.6683 102.25H79.5621C79.9748 102.25 80.3706 102.086 80.6625 101.794C80.9544 101.502 81.1183 101.106 81.1183 100.694V66.456C81.1183 66.0433 80.9544 65.6474 80.6625 65.3556C80.3706 65.0637 79.9748 64.8998 79.5621 64.8998H68.6683Z" fill="currentColor"/>
<path fill-rule="evenodd" clip-rule="evenodd" d="M78.8 40L103.7 49.3375V71.125H101.3V50.75L81.3 43.25V100.159H94.3C94.3 100.572 94.5264 99.9461 94.8183 100.238C95.1102 100.53 95.506 100.694 95.9187 100.694H103.7V102.25H78.8V40Z" fill="currentColor"/>
<path d="M82.675 54.0062H85.7875V57.1187H82.675V54.0062Z" fill="currentColor"/>
<path d="M88.9 54.0062H92.0125V57.1187H88.9V54.0062Z" fill="currentColor"/>
<path d="M95.125 54.0062H98.2375V57.1187H95.125V54.0062Z" fill="currentColor"/>
<path d="M82.675 60.2312H85.7875V63.3437H82.675V60.2312Z" fill="currentColor"/>
<path d="M88.9 60.2312H92.0125V63.3437H88.9V60.2312Z" fill="currentColor"/>
<path d="M95.125 60.2312H98.2375V63.3437H95.125V60.2312Z" fill="currentColor"/>
<path d="M82.675 66.4563H85.7875V69.5688H82.675V66.4563Z" fill="currentColor"/>
<path d="M88.9 66.4563H92.0125V69.5688H88.9V66.4563Z" fill="currentColor"/>
<path d="M95.125 66.4563H98.2375V69.5688H95.125V66.4563Z" fill="currentColor"/>
<path d="M82.675 72.6813H85.7875V75.7938H82.675V72.6813Z" fill="currentColor"/>
<path d="M88.9 72.6813H92.0125V75.7938H88.9V72.6813Z" fill="currentColor"/>
<path d="M82.675 78.9062H85.7875V82.0187H82.675V78.9062Z" fill="currentColor"/>
<path d="M88.9 78.9062H92.0125V82.0187H88.9V78.9062Z" fill="currentColor"/>
<path d="M82.675 85.1312H85.7875V88.2437H82.675V85.1312Z" fill="currentColor"/>
<path d="M88.9 85.1312H92.0125V88.2437H88.9V85.1312Z" fill="currentColor"/>
<path d="M82.675 91.3562H85.7875V94.4687H82.675V91.3562Z" fill="currentColor"/>
<path d="M88.9 91.3562H92.0125V94.4687H88.9V91.3562Z" fill="currentColor"/>
<path fill-rule="evenodd" clip-rule="evenodd" d="M96.4121 73.25L96.2998 100.25H108.957L108.912 73.25H96.4121ZM95.7374 71.125C95.3247 71.125 94.9288 71.289 94.637 71.5808C94.3451 71.8727 94.1812 72.2685 94.1812 72.6813V100.694C94.1812 101.106 94.3451 101.502 94.637 101.794C94.9288 102.086 95.3247 102.25 95.7374 102.25H109.744C110.156 102.25 110.552 102.086 110.844 101.794C111.136 101.502 111.3 101.106 111.3 100.694V72.6813C111.3 72.2685 111.136 71.8727 110.844 71.5808C110.552 71.289 110.156 71.125 109.744 71.125H95.7374Z" fill="currentColor"/>
<path fill-rule="evenodd" clip-rule="evenodd" d="M104.463 80.4625H99.7938V77.35H104.463V80.4625Z" fill="currentColor"/>
<path fill-rule="evenodd" clip-rule="evenodd" d="M104.463 86.6874H99.7938V83.575H104.463V86.6874Z" fill="currentColor"/>
<path fill-rule="evenodd" clip-rule="evenodd" d="M104.463 92.9126H99.7938V89.8H104.463V92.9126Z" fill="currentColor"/>
<path fill-rule="evenodd" clip-rule="evenodd" d="M104.463 99.1375H99.7938V96.025H104.463V99.1375Z" fill="currentColor"/>
<path fill-rule="evenodd" clip-rule="evenodd" d="M74.2998 53.25V67.25H72.2998V53.25H74.2998Z" fill="currentColor"/>
</svg>
