<svg width="192" height="153" viewBox="0 0 192 153" fill="none" xmlns="http://www.w3.org/2000/svg">
<path d="M56.0168 145.125C39.3384 137.041 26.1887 123.142 19.0417 106.041C11.8948 88.9399 11.2432 69.8168 17.2095 52.2692C23.1759 34.7216 35.3489 19.959 51.4384 10.7588C67.528 1.5586 86.4249 -1.44499 104.574 2.31308C122.723 6.07115 138.874 16.3318 149.987 31.1647C161.1 45.9977 166.41 64.3803 164.917 82.8543C163.425 101.328 155.233 118.62 141.883 131.477C128.533 144.333 110.945 151.868 92.4275 152.664L92.3236 150.247C110.251 149.476 127.279 142.181 140.204 129.734C153.129 117.287 161.06 100.545 162.505 82.6595C163.95 64.7737 158.81 46.9763 148.05 32.6156C137.291 18.255 121.655 8.32098 104.083 4.68256C86.5121 1.04414 68.2168 3.95211 52.6396 12.8594C37.0623 21.7666 25.2769 36.0592 19.5005 53.0481C13.7241 70.0371 14.3549 88.5513 21.2744 105.108C28.1938 121.664 40.9248 135.121 57.0722 142.947L56.0168 145.125Z" fill="currentColor"/>
<line x1="0.164062" y1="151.484" x2="93.1641" y2="151.484" stroke="#441D06" stroke-width="2.5"/>
<line x1="121.164" y1="151.484" x2="191.164" y2="151.484" stroke="#441D06" stroke-width="2.5"/>
<path d="M108.344 46H72.9844C70.8675 46.0023 68.838 46.8443 67.3412 48.3412C65.8443 49.838 65.0023 51.8675 65 53.9844V97.3281C65.001 98.2354 65.3618 99.1052 66.0033 99.7467C66.6448 100.388 67.5146 100.749 68.4219 100.75H75.2656C76.1729 100.749 77.0427 100.388 77.6842 99.7467C78.3257 99.1052 78.6865 98.2354 78.6875 97.3281V91.625H102.641V97.3281C102.642 98.2354 103.002 99.1052 103.644 99.7467C104.285 100.388 105.155 100.749 106.062 100.75H112.906C113.813 100.749 114.683 100.388 115.325 99.7467C115.966 99.1052 116.327 98.2354 116.328 97.3281V53.9844C116.326 51.8675 115.484 49.838 113.987 48.3412C112.49 46.8443 110.461 46.0023 108.344 46V46ZM67.2812 89.3438V71.0938H114.047V89.3438H67.2812ZM67.2812 57.4062H114.047V68.8125H67.2812V57.4062ZM72.9844 48.2812H108.344C109.856 48.2829 111.305 48.8843 112.375 49.9535C113.444 51.0227 114.045 52.4723 114.047 53.9844V55.125H67.2812V53.9844C67.2829 52.4723 67.8843 51.0227 68.9535 49.9535C70.0227 48.8843 71.4723 48.2829 72.9844 48.2812ZM76.4062 97.3281C76.4059 97.6305 76.2857 97.9205 76.0718 98.1343C75.858 98.3482 75.568 98.4684 75.2656 98.4688H68.4219C68.1195 98.4684 67.8295 98.3482 67.6157 98.1343C67.4018 97.9205 67.2816 97.6305 67.2812 97.3281V91.625H76.4062V97.3281ZM112.906 98.4688H106.062C105.76 98.4684 105.47 98.3482 105.256 98.1343C105.042 97.9205 104.922 97.6305 104.922 97.3281V91.625H114.047V97.3281C114.047 97.6305 113.926 97.9205 113.712 98.1343C113.499 98.3482 113.209 98.4684 112.906 98.4688ZM80.3984 80.2188C80.3984 80.6699 80.2646 81.111 80.014 81.4861C79.7633 81.8613 79.407 82.1537 78.9902 82.3264C78.5733 82.499 78.1147 82.5442 77.6721 82.4562C77.2296 82.3681 76.8231 82.1509 76.5041 81.8318C76.1851 81.5128 75.9678 81.1063 75.8798 80.6638C75.7917 80.2213 75.8369 79.7626 76.0096 79.3458C76.1822 78.9289 76.4746 78.5726 76.8498 78.322C77.2249 78.0713 77.666 77.9375 78.1172 77.9375C78.722 77.9383 79.3018 78.1788 79.7294 78.6065C80.1571 79.0342 80.3977 79.614 80.3984 80.2188V80.2188ZM105.492 80.2188C105.492 80.6699 105.358 81.111 105.108 81.4861C104.857 81.8613 104.501 82.1537 104.084 82.3264C103.667 82.499 103.208 82.5442 102.766 82.4562C102.323 82.3681 101.917 82.1509 101.598 81.8318C101.279 81.5128 101.062 81.1063 100.974 80.6638C100.885 80.2213 100.931 79.7626 101.103 79.3458C101.276 78.9289 101.568 78.5726 101.944 78.322C102.319 78.0713 102.76 77.9375 103.211 77.9375C103.816 77.9383 104.396 78.1788 104.823 78.6065C105.251 79.0342 105.491 79.614 105.492 80.2188V80.2188Z" fill="currentColor"/>
</svg>
