<svg width="28" height="38" viewBox="0 0 28 38" fill="none" xmlns="http://www.w3.org/2000/svg">
<path d="M13.926 8.80859C12.9124 8.80859 11.9215 9.10917 11.0787 9.67231C10.2359 10.2355 9.57904 11.0359 9.19115 11.9723C8.80325 12.9088 8.70175 13.9393 8.8995 14.9334C9.09725 15.9276 9.58536 16.8408 10.3021 17.5575C11.0188 18.2743 11.932 18.7624 12.9262 18.9601C13.9203 19.1579 14.9508 19.0564 15.8873 18.6685C16.8238 18.2806 17.6242 17.6237 18.1873 16.7809C18.7505 15.9381 19.051 14.9472 19.051 13.9336C19.0495 12.5748 18.509 11.2722 17.5482 10.3114C16.5875 9.35059 15.2848 8.81014 13.926 8.80859V8.80859ZM13.926 16.4961C13.4192 16.4961 12.9238 16.3458 12.5024 16.0642C12.081 15.7827 11.7525 15.3825 11.5586 14.9142C11.3646 14.446 11.3139 13.9307 11.4128 13.4337C11.5116 12.9366 11.7557 12.48 12.1141 12.1216C12.4724 11.7633 12.929 11.5192 13.4261 11.4203C13.9232 11.3215 14.4384 11.3722 14.9067 11.5662C15.3749 11.7601 15.7751 12.0885 16.0567 12.5099C16.3382 12.9313 16.4885 13.4268 16.4885 13.9336C16.4877 14.613 16.2175 15.2643 15.7371 15.7447C15.2567 16.2251 14.6054 16.4953 13.926 16.4961V16.4961Z" fill="currentColor"/>
<path d="M23.7743 4.07799C21.3393 1.64365 18.0889 0.197551 14.6505 0.0187956C11.212 -0.15996 7.82917 0.941299 5.15491 3.11003C2.48066 5.27875 0.704528 8.36121 0.169325 11.7625C-0.365878 15.1637 0.377785 18.6427 2.25679 21.5279L11.9388 36.3914C12.1543 36.7222 12.4488 36.9939 12.7959 37.182C13.1429 37.3701 13.5314 37.4686 13.9261 37.4686C14.3209 37.4686 14.7094 37.3701 15.0564 37.182C15.4034 36.9939 15.698 36.7222 15.9135 36.3914L25.5958 21.5279C27.3393 18.8514 28.1098 15.657 27.7782 12.4801C27.4465 9.30309 26.0329 6.33666 23.7743 4.07799V4.07799ZM23.4487 20.1292L13.9262 34.7474L4.40352 20.1292C1.48868 15.6545 2.11385 9.66624 5.89001 5.88992C6.94532 4.83457 8.19817 3.99743 9.57702 3.42628C10.9559 2.85513 12.4337 2.56116 13.9262 2.56116C15.4186 2.56116 16.8965 2.85513 18.2753 3.42628C19.6542 3.99743 20.907 4.83457 21.9623 5.88992C25.7385 9.66624 26.3636 15.6545 23.4487 20.1292Z" fill="currentColor"/>
</svg>
