<svg width="191" height="152" viewBox="0 0 191 152" fill="none" xmlns="http://www.w3.org/2000/svg">
<path fill-rule="evenodd" clip-rule="evenodd" d="M63.7 100.444C63.7 100.031 63.7 100 63.9998 100C64.4998 100 65.087 100 65.4998 100L112 100C112.412 100 112.5 100 113 100C113.5 100 113.5 100.031 113.5 100.444C113.5 100.857 113.336 101.252 113.044 101.544C112.752 101.836 112.356 102 111.944 102H65.2562C64.8435 102 64.4476 101.836 64.1558 101.544C63.8639 101.252 63.7 100.857 63.7 100.444Z" fill="#441D06"/>
<path fill-rule="evenodd" clip-rule="evenodd" d="M68.9995 66.9999V99.9999H78.4995V66.9999H68.9995ZM68.3683 64.6498C67.9555 64.6498 67.5597 64.8137 67.2678 65.1056C66.976 65.3974 66.812 65.7933 66.812 66.206V100.444C66.812 100.856 66.976 101.252 67.2678 101.544C67.5597 101.836 67.9555 102 68.3683 102H79.262C79.6748 102 80.0706 101.836 80.3624 101.544C80.6543 101.252 80.8183 100.856 80.8183 100.444V66.206C80.8183 65.7933 80.6543 65.3974 80.3624 65.1056C80.0706 64.8137 79.6748 64.6498 79.262 64.6498H68.3683Z" fill="#441D06"/>
<path fill-rule="evenodd" clip-rule="evenodd" d="M78.5 39.75L103.4 49.0875V70.875H101V50.5L81 43V99.9093H94C94 100.322 94.2265 99.6961 94.5183 99.9879C94.8102 100.28 95.206 100.444 95.6187 100.444H103.4V102H78.5V39.75Z" fill="#441D06"/>
<path d="M82.375 53.7562H85.4875V56.8687H82.375V53.7562Z" fill="#441D06"/>
<path d="M88.6 53.7562H91.7125V56.8687H88.6V53.7562Z" fill="#441D06"/>
<path d="M94.825 53.7562H97.9375V56.8687H94.825V53.7562Z" fill="#441D06"/>
<path d="M82.375 59.9812H85.4875V63.0937H82.375V59.9812Z" fill="#441D06"/>
<path d="M88.6 59.9812H91.7125V63.0937H88.6V59.9812Z" fill="#441D06"/>
<path d="M94.825 59.9812H97.9375V63.0937H94.825V59.9812Z" fill="#441D06"/>
<path d="M82.375 66.2063H85.4875V69.3188H82.375V66.2063Z" fill="#441D06"/>
<path d="M88.6 66.2063H91.7125V69.3188H88.6V66.2063Z" fill="#441D06"/>
<path d="M94.825 66.2063H97.9375V69.3188H94.825V66.2063Z" fill="#441D06"/>
<path d="M82.375 72.4313H85.4875V75.5438H82.375V72.4313Z" fill="#441D06"/>
<path d="M88.6 72.4313H91.7125V75.5438H88.6V72.4313Z" fill="#441D06"/>
<path d="M82.375 78.6562H85.4875V81.7687H82.375V78.6562Z" fill="#441D06"/>
<path d="M88.6 78.6562H91.7125V81.7687H88.6V78.6562Z" fill="#441D06"/>
<path d="M82.375 84.8812H85.4875V87.9937H82.375V84.8812Z" fill="#441D06"/>
<path d="M88.6 84.8812H91.7125V87.9937H88.6V84.8812Z" fill="#441D06"/>
<path d="M82.375 91.1062H85.4875V94.2187H82.375V91.1062Z" fill="#441D06"/>
<path d="M88.6 91.1062H91.7125V94.2187H88.6V91.1062Z" fill="#441D06"/>
<path fill-rule="evenodd" clip-rule="evenodd" d="M96.1121 73L95.9998 100H108.656L108.612 73H96.1121ZM95.4374 70.875C95.0246 70.875 94.6288 71.039 94.3369 71.3308C94.0451 71.6227 93.8811 72.0185 93.8811 72.4313V100.444C93.8811 100.856 94.0451 101.252 94.3369 101.544C94.6288 101.836 95.0246 102 95.4374 102H109.444C109.856 102 110.252 101.836 110.544 101.544C110.836 101.252 111 100.856 111 100.444V72.4313C111 72.0185 110.836 71.6227 110.544 71.3308C110.252 71.039 109.856 70.875 109.444 70.875H95.4374Z" fill="#441D06"/>
<path fill-rule="evenodd" clip-rule="evenodd" d="M104.162 80.2125H99.4937V77.1H104.162V80.2125Z" fill="#441D06"/>
<path fill-rule="evenodd" clip-rule="evenodd" d="M104.162 86.4374H99.4937V83.325H104.162V86.4374Z" fill="#441D06"/>
<path fill-rule="evenodd" clip-rule="evenodd" d="M104.162 92.6626H99.4937V89.55H104.162V92.6626Z" fill="#441D06"/>
<path fill-rule="evenodd" clip-rule="evenodd" d="M104.162 98.8875H99.4937V95.775H104.162V98.8875Z" fill="#441D06"/>
<path fill-rule="evenodd" clip-rule="evenodd" d="M73.9998 53V67H71.9998V53H73.9998Z" fill="#441D06"/>
<line x1="121" y1="150.75" x2="191" y2="150.75" stroke="#441D06" stroke-width="2.5"/>
<line y1="150.75" x2="93" y2="150.75" stroke="#441D06" stroke-width="2.5"/>
<path d="M55.8528 144.391C39.1743 136.307 26.0246 122.407 18.8777 105.306C11.7307 88.2055 11.0791 69.0824 17.0455 51.5348C23.0118 33.9872 35.1848 19.2246 51.2744 10.0244C67.3639 0.82423 86.2609 -2.17937 104.41 1.5787C122.559 5.33677 138.71 15.5975 149.823 30.4304C160.936 45.2633 166.246 63.6459 164.753 82.12C163.261 100.594 155.069 117.886 141.719 130.742C128.369 143.599 110.781 151.134 92.2635 151.93L92.1596 149.512C110.087 148.742 127.115 141.447 140.04 129C152.965 116.552 160.896 99.8109 162.341 81.9251C163.786 64.0393 158.646 46.2419 147.886 31.8812C137.127 17.5206 121.491 7.5866 103.919 3.94818C86.3481 0.309766 68.0528 3.21773 52.4755 12.125C36.8982 21.0323 25.1128 35.3248 19.3364 52.3138C13.56 69.3027 14.1909 87.8169 21.1103 104.373C28.0297 120.93 40.7607 134.387 56.9081 142.213L55.8528 144.391Z" fill="#441D06"/>
</svg>
