<svg width="55" height="55" viewBox="0 0 55 55" fill="none" xmlns="http://www.w3.org/2000/svg">
<path d="M51.113 40.3906L54.0788 32.9759L52.4829 32.3374L49.262 40.3906H48.9844V30.0781H47.2656V16.3281H43.8281V12.8906H42.1094V16.3281H40.3906V11.1719H38.6719V16.3281H36.9531V12.8906H35.2344V16.3281H31.7969V26.6406H28.3594V31.0484C26.3338 28.5613 23.5692 26.7498 20.4316 25.9196L20.0415 24.75C21.2945 24.4037 22.324 23.5177 22.8388 22.3438H23.2031C25.0989 22.3438 26.6406 20.802 26.6406 18.9062V14.6094C27.5885 14.6094 28.3594 13.8385 28.3594 12.8906V11.1719C28.3594 10.224 27.5885 9.45312 26.6406 9.45312H26.4911C25.6687 4.50312 21.4354 0.859375 16.3281 0.859375C11.2209 0.859375 6.98758 4.50312 6.16516 9.45312H6.01562C5.06773 9.45312 4.29688 10.224 4.29688 11.1719V12.8906C4.29688 13.8385 5.06773 14.6094 6.01562 14.6094V18.9062C6.01562 20.802 7.55734 22.3438 9.45312 22.3438H9.8175C10.3331 23.5177 11.3618 24.4045 12.6148 24.75L12.2246 25.9196C5.50859 27.6908 0.859375 33.6944 0.859375 40.6845V41.25C0.859375 44.9144 2.95969 48.0915 6.01562 49.6598V54.1406H31.7969V47.2656H34.4618C34.8614 49.2241 36.5965 50.7031 38.6719 50.7031C40.7473 50.7031 42.4823 49.2241 42.882 47.2656H47.1952C50.6455 47.2656 53.5623 44.7949 54.1295 41.3918L54.2962 40.3906H51.113ZM40.3906 40.3906V31.7969H47.2656V40.3906H40.3906ZM33.5156 18.0469H45.5469V30.0781H40.3906V26.6406H33.5156V18.0469ZM38.6719 28.3594V40.3906H30.0781V28.3594H38.6719ZM28.3594 34.0966V40.3906H28.0818L24.86 32.3366L23.2641 32.9751L26.2307 40.3906H23.0484L23.2152 41.3918C23.4429 42.7582 24.0539 43.9708 24.9219 44.9367V52.4219H20.625V50.7031C22.0464 50.7031 23.2031 49.5464 23.2031 48.125C23.2031 46.7036 22.0464 45.5469 20.625 45.5469V27.781C23.9018 28.8226 26.6733 31.0707 28.3594 34.0966ZM18.2866 24.9219L18.8169 26.5134L16.3281 30.2474L13.8385 26.5134L14.3696 24.9219H18.2866ZM18.9062 33.6437L17.392 31.7505L18.9062 29.4791V33.6437ZM13.75 33.6437V29.4791L15.2642 31.7505L13.75 33.6437ZM13.75 36.3945L16.3281 33.1719L18.9062 36.3945V43.9794C18.6364 43.884 18.3485 43.8281 18.0469 43.8281H17.0405C16.3522 43.8281 15.7042 44.0963 15.217 44.5835L14.3352 45.4652L13.75 45.3346V36.3945ZM15.4688 46.762L16.4321 45.7987C16.5945 45.6362 16.8111 45.5469 17.0405 45.5469H18.0469C18.5204 45.5469 18.9062 45.9327 18.9062 46.4062V47.2656H20.625C21.0985 47.2656 21.4844 47.6515 21.4844 48.125C21.4844 48.5985 21.0985 48.9844 20.625 48.9844H15.4688V46.762ZM18.9062 50.7031V52.4219H13.75V50.7031H18.9062ZM23.2031 20.625V17.1875C24.151 17.1875 24.9219 17.9584 24.9219 18.9062C24.9219 19.8541 24.151 20.625 23.2031 20.625ZM24.9219 15.9466C24.414 15.6509 23.8322 15.4688 23.2031 15.4688V14.6094H24.9219V15.9466ZM24.7466 9.45312H18.9062V2.97172C21.8582 3.88695 24.1227 6.33531 24.7466 9.45312ZM17.1875 2.62109V9.45312H15.4688V2.62109C15.7515 2.59359 16.0377 2.57812 16.3281 2.57812C16.6186 2.57812 16.9048 2.59359 17.1875 2.62109ZM13.75 2.97172V9.45312H7.90969C8.53359 6.33531 10.798 3.88695 13.75 2.97172ZM6.01477 11.1719H6.01562H26.6406V12.8906H6.01562L6.01477 11.1719ZM9.45312 14.6094V15.4688C8.82406 15.4688 8.24227 15.6509 7.73438 15.9466V14.6094H9.45312ZM7.73438 18.9062C7.73438 17.9584 8.50523 17.1875 9.45312 17.1875V20.625C8.50523 20.625 7.73438 19.8541 7.73438 18.9062ZM11.1719 20.625V14.6094H21.4844V20.625C21.4844 22.0464 20.3277 23.2031 18.9062 23.2031H13.75C12.3286 23.2031 11.1719 22.0464 11.1719 20.625ZM2.57812 41.25V40.6845C2.57812 34.7033 6.41438 29.5402 12.0312 27.769V44.9539L11.0988 44.7468C9.11797 44.3059 7.73438 42.5812 7.73438 40.5513V36.9531H6.01562V40.5513C6.01562 43.3924 7.95266 45.8073 10.7259 46.4234L13.75 47.0955V48.9844H10.3125C6.04828 48.9844 2.57812 45.5142 2.57812 41.25ZM7.73438 50.337C8.55508 50.5699 9.41789 50.7031 10.3125 50.7031H12.0312V52.4219H7.73438V50.337ZM26.6406 52.4219V46.3323C27.6573 46.9167 28.832 47.2502 30.0781 47.2631V52.4219H26.6406ZM38.6719 48.9844C37.2505 48.9844 36.0938 47.8277 36.0938 46.4062C36.0938 45.9327 36.4796 45.5469 36.9531 45.5469H40.3906C40.8641 45.5469 41.25 45.9327 41.25 46.4062C41.25 47.8277 40.0933 48.9844 38.6719 48.9844ZM47.1943 45.5469H42.8098C42.454 44.5491 41.5087 43.8281 40.3898 43.8281H36.9523C35.8334 43.8281 34.888 44.5491 34.5323 45.5469H30.1477C27.8927 45.5469 25.9402 44.1504 25.1763 42.1094H52.1641C51.4018 44.1504 49.4502 45.5469 47.1943 45.5469Z" fill="#441D06"/>
<path d="M42.1094 19.7656H43.8281V21.4844H42.1094V19.7656Z" fill="#441D06"/>
<path d="M38.6719 19.7656H40.3906V21.4844H38.6719V19.7656Z" fill="#441D06"/>
<path d="M35.2344 19.7656H36.9531V21.4844H35.2344V19.7656Z" fill="#441D06"/>
<path d="M42.1094 23.2031H43.8281V24.9219H42.1094V23.2031Z" fill="#441D06"/>
<path d="M35.2344 23.2031H36.9531V24.9219H35.2344V23.2031Z" fill="#441D06"/>
<path d="M38.6719 23.2031H40.3906V24.9219H38.6719V23.2031Z" fill="#441D06"/>
<path d="M42.1094 26.6406H43.8281V28.3594H42.1094V26.6406Z" fill="#441D06"/>
<path d="M31.7969 30.0781H33.5156V38.6719H31.7969V30.0781Z" fill="#441D06"/>
<path d="M35.2344 30.0781H36.9531V38.6719H35.2344V30.0781Z" fill="#441D06"/>
<path d="M42.1094 33.5156H45.5469V35.2344H42.1094V33.5156Z" fill="#441D06"/>
<path d="M42.1094 36.9531H45.5469V38.6719H42.1094V36.9531Z" fill="#441D06"/>
</svg>
