<svg width="58" height="58" viewBox="0 0 58 58" fill="none" xmlns="http://www.w3.org/2000/svg">
<circle cx="29" cy="29" r="29" fill="#441D06"/>
<path d="M40.1 30.95V41.1C40.1 41.8691 39.7945 42.6068 39.2506 43.1506C38.7068 43.6945 37.9692 44 37.2 44C36.4309 44 35.6933 43.6945 35.1494 43.1506C34.6056 42.6068 34.3 41.8691 34.3 41.1V33.85H31.4V19.35C31.4 18.1963 31.8583 17.0899 32.6741 16.2741C33.4899 15.4583 34.5963 15 35.75 15H40.1V30.95ZM19.8 29.5C19.0309 29.5 18.2933 29.1945 17.7494 28.6506C17.2056 28.1068 16.9 27.3691 16.9 26.6V16.45C16.9 16.0654 17.0528 15.6966 17.3247 15.4247C17.5966 15.1528 17.9655 15 18.35 15C18.7346 15 19.1034 15.1528 19.3753 15.4247C19.6473 15.6966 19.8 16.0654 19.8 16.45V22.25H21.25V16.45C21.25 16.0654 21.4028 15.6966 21.6747 15.4247C21.9466 15.1528 22.3155 15 22.7 15C23.0846 15 23.4534 15.1528 23.7253 15.4247C23.9973 15.6966 24.15 16.0654 24.15 16.45V22.25H25.6V16.45C25.6 16.0654 25.7528 15.6966 26.0247 15.4247C26.2966 15.1528 26.6655 15 27.05 15C27.4346 15 27.8034 15.1528 28.0753 15.4247C28.3473 15.6966 28.5 16.0654 28.5 16.45V26.6C28.5 27.3691 28.1945 28.1068 27.6506 28.6506C27.1068 29.1945 26.3692 29.5 25.6 29.5V41.1C25.6 41.8691 25.2945 42.6068 24.7506 43.1506C24.2068 43.6945 23.4692 44 22.7 44C21.9309 44 21.1933 43.6945 20.6494 43.1506C20.1056 42.6068 19.8 41.8691 19.8 41.1V29.5Z" fill="#FF9900"/>
</svg>
