<svg width="223" height="152" viewBox="0 0 223 152" fill="none" xmlns="http://www.w3.org/2000/svg">
<path d="M63.8528 144.391C47.1743 136.307 34.0246 122.407 26.8777 105.306C19.7307 88.2055 19.0791 69.0825 25.0455 51.5348C31.0118 33.9872 43.1848 19.2246 59.2744 10.0244C75.3639 0.82423 94.2609 -2.17937 112.41 1.5787C130.559 5.33677 146.71 15.5975 157.823 30.4304C168.936 45.2633 174.246 63.6459 172.753 82.12C171.261 100.594 163.069 117.886 149.719 130.742C136.369 143.599 118.781 151.134 100.263 151.93L100.16 149.512C118.087 148.742 135.115 141.447 148.04 129C160.965 116.552 168.896 99.8109 170.341 81.9251C171.786 64.0393 166.646 46.2419 155.886 31.8812C145.127 17.5206 129.491 7.5866 111.919 3.94818C94.3481 0.309766 76.0528 3.21773 60.4755 12.125C44.8982 21.0323 33.1128 35.3248 27.3364 52.3138C21.56 69.3027 22.1909 87.8169 29.1103 104.373C36.0297 120.93 48.7607 134.387 64.9081 142.213L63.8528 144.391Z" fill="#441D06"/>
<line x1="8" y1="150.75" x2="101" y2="150.75" stroke="#441D06" stroke-width="2.5"/>
<line x1="129" y1="150.75" x2="199" y2="150.75" stroke="#441D06" stroke-width="2.5"/>
<g clip-path="url(#clip0_1_4539)">
<path d="M86.3665 79.4001C79.5549 79.4001 74.0332 84.9218 74.0332 91.7335C74.0332 98.5451 79.5549 104.067 86.3665 104.067C93.1782 104.067 98.6999 98.5451 98.6999 91.7335C98.6926 84.9249 93.1752 79.4074 86.3665 79.4001ZM86.3665 101.6C80.9171 101.6 76.4999 97.1829 76.4999 91.7335C76.4999 86.284 80.9171 81.8668 86.3665 81.8668C91.816 81.8668 96.2332 86.284 96.2332 91.7335C96.2272 97.1799 91.813 101.594 86.3665 101.6Z" fill="#441D06"/>
<path d="M86.3669 88.0333C87.8731 88.0333 88.8336 88.7631 88.8336 89.2666H91.3003C91.3003 87.5141 89.7478 86.0947 87.6003 85.69V84.3333H85.1336V85.69C82.9861 86.0917 81.4336 87.5117 81.4336 89.2666C81.4336 91.3424 83.6004 92.9666 86.3669 92.9666C87.8731 92.9666 88.8336 93.6965 88.8336 94.1999C88.8336 94.7034 87.8731 95.4332 86.3669 95.4332C84.8608 95.4332 83.9003 94.7034 83.9003 94.1999H81.4336C81.4336 95.9524 82.9861 97.3718 85.1336 97.7765V99.1332H87.6003V97.7765C89.7478 97.3748 91.3003 95.9548 91.3003 94.1999C91.3003 92.1241 89.1335 90.4999 86.3669 90.4999C84.8608 90.4999 83.9003 89.77 83.9003 89.2666C83.9003 88.7631 84.8608 88.0333 86.3669 88.0333Z" fill="#441D06"/>
<path d="M120.9 106.533H69.1V76.9333H88.8333C90.8766 76.9333 92.5333 75.2766 92.5333 73.2333V42.4H106.1V57.2H120.9V74.4667H123.367V55.456L107.844 39.9333H92.5333V38.7C92.5333 36.6567 90.8766 35 88.8333 35H61.7C59.6567 35 58 36.6567 58 38.7V73.2333C58 75.2766 59.6567 76.9333 61.7 76.9333H66.6333V109H123.367V91.7333H120.9V106.533ZM108.567 44.144L119.156 54.7333H108.567V44.144ZM60.4667 73.2333V38.7C60.4667 38.0189 61.0189 37.4667 61.7 37.4667H88.8333C89.5144 37.4667 90.0667 38.0189 90.0667 38.7V73.2333C90.0667 73.9144 89.5144 74.4667 88.8333 74.4667H61.7C61.0189 74.4667 60.4667 73.9144 60.4667 73.2333Z" fill="#441D06"/>
<path d="M97.4668 65.8333H99.9335V68.2999H97.4668V65.8333Z" fill="#441D06"/>
<path d="M102.4 65.8333H117.2V68.2999H102.4V65.8333Z" fill="#441D06"/>
<path d="M97.4668 60.9001H99.9335V63.3668H97.4668V60.9001Z" fill="#441D06"/>
<path d="M102.4 60.9001H117.2V63.3668H102.4V60.9001Z" fill="#441D06"/>
<path d="M97.4668 70.7666H99.9335V73.2333H97.4668V70.7666Z" fill="#441D06"/>
<path d="M102.4 70.7666H117.2V73.2333H102.4V70.7666Z" fill="#441D06"/>
<path d="M97.4668 75.7H99.9335V78.1666H97.4668V75.7Z" fill="#441D06"/>
<path d="M102.4 75.7H117.2V78.1666H102.4V75.7Z" fill="#441D06"/>
<path d="M88.8345 38.7H61.7012V47.3333H88.8345V38.7ZM86.3678 44.8666H64.1678V41.1666H86.3678V44.8666Z" fill="#441D06"/>
<path d="M67.8669 48.5667H65.4003C64.0381 48.5667 62.9336 49.6711 62.9336 51.0333V53.5C62.9336 54.8622 64.0381 55.9667 65.4003 55.9667H67.8669C69.2291 55.9667 70.3336 54.8622 70.3336 53.5V51.0333C70.3336 49.6711 69.2291 48.5667 67.8669 48.5667ZM65.4003 53.5V51.0333H67.8669V53.5H65.4003Z" fill="#441D06"/>
<path d="M76.4997 48.5667H74.0331C72.6709 48.5667 71.5664 49.6711 71.5664 51.0333V53.5C71.5664 54.8622 72.6709 55.9667 74.0331 55.9667H76.4997C77.8619 55.9667 78.9664 54.8622 78.9664 53.5V51.0333C78.9664 49.6711 77.8619 48.5667 76.4997 48.5667ZM74.0331 53.5V51.0333H76.4997V53.5H74.0331Z" fill="#441D06"/>
<path d="M85.1345 48.5667H82.6678C81.3056 48.5667 80.2012 49.6711 80.2012 51.0333V53.5C80.2012 54.8622 81.3056 55.9667 82.6678 55.9667H85.1345C86.4967 55.9667 87.6012 54.8622 87.6012 53.5V51.0333C87.6012 49.6711 86.4967 48.5667 85.1345 48.5667ZM82.6678 53.5V51.0333H85.1345V53.5H82.6678Z" fill="#441D06"/>
<path d="M67.8669 57.2H65.4003C64.0381 57.2 62.9336 58.3044 62.9336 59.6666V62.1333C62.9336 63.4955 64.0381 64.6 65.4003 64.6H67.8669C69.2291 64.6 70.3336 63.4955 70.3336 62.1333V59.6666C70.3336 58.3044 69.2291 57.2 67.8669 57.2ZM65.4003 62.1333V59.6666H67.8669V62.1333H65.4003Z" fill="#441D06"/>
<path d="M76.4997 57.2H74.0331C72.6709 57.2 71.5664 58.3044 71.5664 59.6666V62.1333C71.5664 63.4955 72.6709 64.6 74.0331 64.6H76.4997C77.8619 64.6 78.9664 63.4955 78.9664 62.1333V59.6666C78.9664 58.3044 77.8619 57.2 76.4997 57.2ZM74.0331 62.1333V59.6666H76.4997V62.1333H74.0331Z" fill="#441D06"/>
<path d="M85.1345 57.2H82.6678C81.3056 57.2 80.2012 58.3044 80.2012 59.6666V62.1333C80.2012 63.4955 81.3056 64.6 82.6678 64.6H85.1345C86.4967 64.6 87.6012 63.4955 87.6012 62.1333V59.6666C87.6012 58.3044 86.4967 57.2 85.1345 57.2ZM82.6678 62.1333V59.6666H85.1345V62.1333H82.6678Z" fill="#441D06"/>
<path d="M67.8669 65.8333H65.4003C64.0381 65.8333 62.9336 66.9377 62.9336 68.2999V70.7666C62.9336 72.1288 64.0381 73.2333 65.4003 73.2333H67.8669C69.2291 73.2333 70.3336 72.1288 70.3336 70.7666V68.2999C70.3336 66.9377 69.2291 65.8333 67.8669 65.8333ZM65.4003 70.7666V68.2999H67.8669V70.7666H65.4003Z" fill="#441D06"/>
<path d="M76.4997 65.8333H74.0331C72.6709 65.8333 71.5664 66.9377 71.5664 68.2999V70.7666C71.5664 72.1288 72.6709 73.2333 74.0331 73.2333H76.4997C77.8619 73.2333 78.9664 72.1288 78.9664 70.7666V68.2999C78.9664 66.9377 77.8619 65.8333 76.4997 65.8333ZM74.0331 70.7666V68.2999H76.4997V70.7666H74.0331Z" fill="#441D06"/>
<path d="M85.1345 65.8333H82.6678C81.3056 65.8333 80.2012 66.9377 80.2012 68.2999V70.7666C80.2012 72.1288 81.3056 73.2333 82.6678 73.2333H85.1345C86.4967 73.2333 87.6012 72.1288 87.6012 70.7666V68.2999C87.6012 66.9377 86.4967 65.8333 85.1345 65.8333ZM82.6678 70.7666V68.2999H85.1345V70.7666H82.6678Z" fill="#441D06"/>
<path d="M130.879 74.3535C129.415 72.9557 127.112 72.9557 125.648 74.3535L104.505 95.496C104.402 95.5996 104.318 95.72 104.258 95.8525L101.28 102.318C101.065 102.786 101.165 103.34 101.53 103.704C101.894 104.069 102.447 104.168 102.916 103.953L109.381 100.976C109.514 100.915 109.634 100.832 109.738 100.729L130.879 79.5861C132.324 78.1414 132.324 75.7982 130.879 74.3535ZM108.148 98.8274L104.916 100.316L106.405 97.0846L122.169 81.3193L123.913 83.0633L108.148 98.8274ZM125.661 81.3139L123.917 79.5705L124.78 78.7069L126.524 80.4509L125.661 81.3139ZM129.139 77.8361L128.267 78.7081L126.523 76.9641L127.396 76.0921C127.884 75.626 128.651 75.626 129.139 76.0921C129.62 76.5738 129.62 77.3543 129.139 77.8361Z" fill="#441D06"/>
</g>
<defs>
<clipPath id="clip0_1_4539">
<rect width="74" height="74" fill="white" transform="translate(58 35)"/>
</clipPath>
</defs>
</svg>
