<svg width="30" height="30" viewBox="0 0 30 30" fill="none" xmlns="http://www.w3.org/2000/svg">
<path d="M26.6667 0H3.33333C1.5 0 0 1.5 0 3.33333V26.6667C0 28.5 1.5 30 3.33333 30H26.6667C28.5 30 30 28.5 30 26.6667V3.33333C30 1.5 28.5 0 26.6667 0ZM16.7167 6.76667L18.4833 5L20.8333 7.35L23.1833 5L24.95 6.76667L22.6 9.11667L24.95 11.4667L23.1833 13.2333L20.8333 10.9L18.4833 13.25L16.7167 11.4833L19.0667 9.13333L16.7167 6.76667ZM5.41667 7.86667H13.75V10.3667H5.41667V7.86667ZM14.1667 21.6667H10.8333V25H8.33333V21.6667H5V19.1667H8.33333V15.8333H10.8333V19.1667H14.1667V21.6667ZM25 23.75H16.6667V21.25H25V23.75ZM25 19.5833H16.6667V17.0833H25V19.5833Z" fill="#FF9900"/>
</svg>
