<svg width="55" height="55" viewBox="0 0 55 55" fill="none" xmlns="http://www.w3.org/2000/svg">
<g clip-path="url(#clip0_1_4370)">
<path d="M13.2194 41.1908C13.17 41.1414 13.1152 41.0962 13.0562 41.0565C12.9981 41.0178 12.9358 40.9845 12.8703 40.9577C12.8059 40.9308 12.7382 40.9104 12.6694 40.8964C12.5309 40.8685 12.388 40.8685 12.2494 40.8964C12.1817 40.9104 12.1141 40.9308 12.0485 40.9577C11.9841 40.9845 11.9218 41.0178 11.8638 41.0565C11.8047 41.0962 11.7499 41.1414 11.7005 41.1908C11.4996 41.3906 11.3857 41.6677 11.3857 41.9502C11.3857 42.0201 11.3922 42.091 11.4062 42.1597C11.4201 42.2285 11.4405 42.2961 11.4674 42.3606C11.4942 42.4261 11.5275 42.4884 11.5662 42.5464C11.606 42.6055 11.6511 42.6603 11.7005 42.7097C11.7499 42.7591 11.8047 42.8042 11.8638 42.8429C11.9218 42.8816 11.9841 42.9149 12.0485 42.9417C12.1141 42.9686 12.1817 42.989 12.2494 43.003C12.3192 43.0169 12.3901 43.0245 12.46 43.0245C12.5298 43.0245 12.6007 43.0169 12.6694 43.003C12.7382 42.989 12.8059 42.9686 12.8703 42.9417C12.9358 42.9149 12.9981 42.8816 13.0562 42.8429C13.1152 42.8042 13.17 42.7591 13.2194 42.7097C13.2688 42.6603 13.314 42.6055 13.3526 42.5464C13.3913 42.4884 13.4246 42.4261 13.4515 42.3606C13.4783 42.2961 13.4987 42.2285 13.5127 42.1597C13.5267 42.091 13.5342 42.0201 13.5342 41.9502C13.5342 41.6666 13.4192 41.3906 13.2194 41.1908Z" fill="#441D06"/>
<path d="M43.2995 41.191C43.2501 41.1416 43.1953 41.0965 43.1362 41.0568C43.0782 41.0181 43.0159 40.9848 42.9515 40.9579C42.8859 40.9311 42.8183 40.9107 42.7506 40.8967C42.4015 40.8269 42.0298 40.9408 41.7806 41.191C41.5808 41.3908 41.4658 41.6669 41.4658 41.9505C41.4658 42.0203 41.4733 42.0912 41.4873 42.16C41.5013 42.2287 41.5217 42.2964 41.5485 42.3609C41.5754 42.4264 41.6087 42.4887 41.6474 42.5467C41.686 42.6058 41.7312 42.6606 41.7806 42.71C41.9804 42.9098 42.2575 43.0247 42.54 43.0247C42.6099 43.0247 42.6808 43.0172 42.7506 43.0032C42.8183 42.9893 42.8859 42.9689 42.9515 42.942C43.0159 42.9152 43.0782 42.8819 43.1362 42.8432C43.1953 42.8045 43.2501 42.7594 43.2995 42.71C43.3489 42.6606 43.394 42.6058 43.4338 42.5467C43.4725 42.4887 43.5058 42.4264 43.5326 42.3609C43.5595 42.2964 43.5799 42.2287 43.5938 42.16C43.6078 42.0912 43.6143 42.0203 43.6143 41.9505C43.6143 41.668 43.5004 41.3908 43.2995 41.191Z" fill="#441D06"/>
<path d="M23.0947 28.7007C22.5014 28.7007 22.0205 29.1816 22.0205 29.7749V34.8237C22.0205 35.417 22.5014 35.8979 23.0947 35.8979C23.688 35.8979 24.1689 35.417 24.1689 34.8237V29.7749C24.1689 29.1816 23.688 28.7007 23.0947 28.7007Z" fill="#441D06"/>
<path d="M27.5003 4.95386C24.532 4.95386 22.1172 7.3687 22.1172 10.337C22.1172 13.3053 24.532 15.7201 27.5003 15.7201C30.4686 15.7201 32.8834 13.3053 32.8834 10.337C32.8834 7.3687 30.4686 4.95386 27.5003 4.95386ZM27.5003 13.5717C25.7167 13.5717 24.2656 12.1206 24.2656 10.337C24.2656 8.55335 25.7167 7.10229 27.5003 7.10229C29.2839 7.10229 30.735 8.55346 30.735 10.337C30.735 12.1206 29.2839 13.5717 27.5003 13.5717Z" fill="#441D06"/>
<path d="M27.5 0C26.9067 0 26.4258 0.480928 26.4258 1.07422V2.43128C26.4258 3.02457 26.9067 3.5055 27.5 3.5055C28.0933 3.5055 28.5742 3.02457 28.5742 2.43128V1.07422C28.5742 0.480928 28.0933 0 27.5 0Z" fill="#441D06"/>
<path d="M27.5 17.1689C26.9067 17.1689 26.4258 17.6499 26.4258 18.2432V19.6002C26.4258 20.1935 26.9067 20.6744 27.5 20.6744C28.0933 20.6744 28.5742 20.1935 28.5742 19.6002V18.2432C28.5742 17.6499 28.0933 17.1689 27.5 17.1689Z" fill="#441D06"/>
<path d="M36.7633 9.26294H35.4063C34.813 9.26294 34.332 9.74387 34.332 10.3372C34.332 10.9304 34.813 11.4114 35.4063 11.4114H36.7633C37.3566 11.4114 37.8375 10.9304 37.8375 10.3372C37.8375 9.74387 37.3566 9.26294 36.7633 9.26294Z" fill="#441D06"/>
<path d="M19.5944 9.26294H18.2373C17.644 9.26294 17.1631 9.74387 17.1631 10.3372C17.1631 10.9304 17.644 11.4114 18.2373 11.4114H19.5944C20.1877 11.4114 20.6686 10.9304 20.6686 10.3372C20.6686 9.74387 20.1877 9.26294 19.5944 9.26294Z" fill="#441D06"/>
<path d="M35.6751 2.16251C35.2555 1.74303 34.5753 1.74303 34.1558 2.16251L33.0695 3.24887C32.65 3.66846 32.65 4.34866 33.0695 4.76814C33.2792 4.97793 33.5542 5.08278 33.8291 5.08278C34.104 5.08278 34.379 4.97793 34.5888 4.76803L35.6751 3.68167C36.0946 3.26219 36.0946 2.582 35.6751 2.16251Z" fill="#441D06"/>
<path d="M21.931 15.9067C21.5116 15.4871 20.8313 15.4872 20.4118 15.9066L19.3254 16.993C18.9059 17.4124 18.9059 18.0926 19.3253 18.5121C19.535 18.7219 19.8099 18.8268 20.0849 18.8268C20.3598 18.8268 20.6347 18.7219 20.8445 18.5122L21.9309 17.4259C22.3505 17.0064 22.3505 16.3262 21.931 15.9067Z" fill="#441D06"/>
<path d="M35.6741 16.9927L34.5877 15.9064C34.1682 15.4869 33.488 15.487 33.0686 15.9065C32.649 16.3259 32.6491 17.0061 33.0686 17.4256L34.1549 18.512C34.3647 18.7218 34.6396 18.8266 34.9145 18.8266C35.1894 18.8266 35.4644 18.7218 35.6741 18.5119C36.0937 18.0924 36.0936 17.4122 35.6741 16.9927Z" fill="#441D06"/>
<path d="M21.93 3.24887L20.8436 2.16251C20.4241 1.74303 19.7439 1.74303 19.3244 2.16251C18.9049 2.58199 18.9049 3.26219 19.3244 3.68167L20.4108 4.76803C20.6205 4.97782 20.8955 5.08267 21.1704 5.08267C21.4453 5.08267 21.7203 4.97782 21.93 4.76814C22.3495 4.34855 22.3495 3.66835 21.93 3.24887Z" fill="#441D06"/>
<path d="M51.8849 15.5598H44.5813C42.8636 15.5598 41.4661 16.9573 41.4661 18.6749V19.5339H38.3513C36.6337 19.5339 35.2362 20.9313 35.2362 22.6489V24.8842H19.7636V22.6489C19.7636 20.9312 18.3661 19.5339 16.6486 19.5339H13.5338V18.6749C13.5338 16.9573 12.1363 15.5598 10.4187 15.5598H3.11513C1.39745 15.5598 0 16.9572 0 18.6748V53.9256C0 54.5189 0.480928 54.9999 1.07422 54.9999H53.9258C54.5191 54.9999 55 54.5189 55 53.9256V18.6748C55 16.9572 53.6026 15.5598 51.8849 15.5598ZM33.0876 27.0326H35.2364V45.2935C34.4867 45.4701 33.7633 45.7475 33.0876 46.1178V27.0326ZM19.7637 27.0326H30.9391V45.8117C30.4877 45.6962 30.0181 45.6472 29.5468 45.6713C29.2567 45.3724 28.929 45.1152 28.5743 44.905V33.8002C28.5743 33.2069 28.0934 32.7259 27.5001 32.7259C26.9068 32.7259 26.4259 33.2069 26.4259 33.8002V44.2556C26.3487 44.2518 26.2712 44.2497 26.1934 44.2497C25.4793 44.2497 24.7876 44.4093 24.1574 44.7158C22.8385 43.8307 21.3439 43.2982 19.7637 43.1495V27.0326ZM6.68153 40.9195C5.89811 40.9195 5.26077 40.2822 5.26077 39.4988V34.6557C5.26077 33.8722 5.89811 33.2349 6.68153 33.2349C7.46496 33.2349 8.10229 33.8722 8.10229 34.6557V39.4988C8.10229 40.2822 7.46496 40.9195 6.68153 40.9195ZM7.75575 52.8513V42.9028C9.20058 42.4458 10.2507 41.0926 10.2507 39.4988V34.6557C10.2507 32.6876 8.64961 31.0865 6.68153 31.0865C4.71346 31.0865 3.11233 32.6876 3.11233 34.6557V39.4988C3.11233 41.0927 4.1626 42.4459 5.60731 42.9028V52.8514H2.14844V18.6748C2.14844 18.1418 2.5821 17.7081 3.11502 17.7081H10.4186C10.9517 17.7081 11.3852 18.1418 11.3852 18.6748V37.9896C11.3852 38.5829 11.8661 39.0638 12.4594 39.0638C13.0527 39.0638 13.5337 38.5829 13.5337 37.9896V21.6822H16.6485C17.1815 21.6822 17.615 22.1159 17.615 22.6488V43.185C12.9179 43.7899 9.27674 47.8144 9.27674 52.6734C9.27674 52.7327 9.27728 52.792 9.27835 52.8513H7.75575ZM11.4274 52.8516V52.8514C11.426 52.7921 11.4253 52.7328 11.4253 52.6735C11.4253 48.583 14.7532 45.255 18.8438 45.255C20.5266 45.255 22.1129 45.8041 23.4313 46.8431C23.8077 47.1397 24.3349 47.1511 24.7239 46.8711C25.1535 46.5618 25.6616 46.3983 26.1933 46.3983C26.9963 46.3983 27.7583 46.7866 28.2319 47.4371C28.477 47.774 28.8951 47.9389 29.3042 47.8597C29.462 47.8292 29.6243 47.8138 29.7865 47.8138C30.4901 47.8138 31.1428 48.0967 31.6245 48.6104C32.0142 49.026 32.6604 49.0651 33.0973 48.6997C34.242 47.7421 35.6956 47.2149 37.1905 47.2149C40.4579 47.2149 43.1599 49.6824 43.5312 52.8516H11.4274ZM48.3185 46.2912C47.535 46.2912 46.8977 45.6538 46.8977 44.8704V40.0274C46.8977 39.244 47.535 38.6066 48.3185 38.6066C49.1019 38.6066 49.7392 39.244 49.7392 40.0274V44.8705C49.7392 45.6538 49.1019 46.2912 48.3185 46.2912ZM52.8518 52.8514H52.8516H49.3927V48.2744C50.8374 47.8174 51.8877 46.4642 51.8877 44.8704V40.0274C51.8877 38.0593 50.2865 36.4582 48.3185 36.4582C46.3504 36.4582 44.7493 38.0593 44.7493 40.0274V44.8705C44.7493 46.4644 45.7995 47.8176 47.2442 48.2745V52.8514H45.6907C45.3165 48.5587 41.7499 45.1665 37.3849 45.0685V22.6489C37.3849 22.1159 37.8185 21.6823 38.3515 21.6823H41.4663V37.9896C41.4663 38.5829 41.9473 39.0638 42.5406 39.0638C43.1339 39.0638 43.6148 38.5829 43.6148 37.9896V18.6748C43.6148 18.1418 44.0484 17.7081 44.5815 17.7081H51.8851C52.4181 17.7081 52.8518 18.1418 52.8518 18.6748V52.8514Z" fill="#441D06"/>
</g>
<defs>
<clipPath id="clip0_1_4370">
<rect width="55" height="55" fill="white"/>
</clipPath>
</defs>
</svg>
