<svg width="20" height="19" viewBox="0 0 20 19" fill="none" xmlns="http://www.w3.org/2000/svg">
<path d="M18.8999 0.727687C18.5519 0.739836 18.2325 0.922066 18.0483 1.21363L8.18903 16.1322L1.80182 10.6734C1.52749 10.392 1.11601 10.2867 0.73728 10.4041C0.360598 10.5195 0.0801345 10.8354 0.0146246 11.2201C-0.0508853 11.6068 0.106748 11.9956 0.426108 12.2284L7.73046 18.481C7.95975 18.6733 8.26273 18.7584 8.55957 18.7158C8.85846 18.6713 9.12255 18.5032 9.28632 18.2542L19.817 2.34751C20.0422 2.02152 20.0607 1.60037 19.8662 1.25615C19.6717 0.913967 19.2971 0.709464 18.8999 0.727687Z" fill="currentColor"/>
</svg>
