<svg width="223" height="152" viewBox="0 0 223 152" fill="none" xmlns="http://www.w3.org/2000/svg">
<path d="M63.8528 144.391C47.1743 136.307 34.0246 122.407 26.8777 105.306C19.7307 88.2055 19.0791 69.0825 25.0455 51.5348C31.0118 33.9872 43.1848 19.2246 59.2744 10.0244C75.3639 0.82423 94.2609 -2.17937 112.41 1.5787C130.559 5.33677 146.71 15.5975 157.823 30.4304C168.936 45.2633 174.246 63.6459 172.753 82.12C171.261 100.594 163.069 117.886 149.719 130.742C136.369 143.599 118.781 151.134 100.263 151.93L100.16 149.512C118.087 148.742 135.115 141.447 148.04 129C160.965 116.552 168.896 99.8109 170.341 81.9251C171.786 64.0393 166.646 46.2419 155.886 31.8812C145.127 17.5206 129.491 7.5866 111.919 3.94818C94.3481 0.309766 76.0528 3.21773 60.4755 12.125C44.8982 21.0323 33.1128 35.3248 27.3364 52.3138C21.56 69.3027 22.1909 87.8169 29.1103 104.373C36.0297 120.93 48.7607 134.387 64.9081 142.213L63.8528 144.391Z" fill="#441D06"/>
<line x1="8" y1="150.75" x2="101" y2="150.75" stroke="#441D06" stroke-width="2.5"/>
<line x1="129" y1="150.75" x2="199" y2="150.75" stroke="#441D06" stroke-width="2.5"/>
<g clip-path="url(#clip0_1_4567)">
<path d="M75.5385 61.4375H67.8867V53.7856H75.5385V61.4375ZM70.4373 58.8868H72.9879V56.3362H70.4373V58.8868Z" fill="#441D06"/>
<path d="M84.4663 61.4375H76.8145V53.7856H84.4663V61.4375ZM79.3651 58.8868H81.9157V56.3362H79.3651V58.8868Z" fill="#441D06"/>
<path d="M75.5385 70.3645H67.8867V62.7126H75.5385V70.3645ZM70.4373 67.8139H72.9879V65.2632H70.4373V67.8139Z" fill="#441D06"/>
<path d="M84.4663 70.3645H76.8145V62.7126H84.4663V70.3645ZM79.3651 67.8139H81.9157V65.2632H79.3651V67.8139Z" fill="#441D06"/>
<path d="M93.394 61.4375H85.7422V53.7856H93.394V61.4375ZM88.2928 58.8868H90.8434V56.3362H88.2928V58.8868Z" fill="#441D06"/>
<path d="M93.394 70.3645H85.7422V62.7126H93.394V70.3645ZM88.2928 67.8139H90.8434V65.2632H88.2928V67.8139Z" fill="#441D06"/>
<path d="M130.378 69.0893V61.4375H125.277V51.2351H122.37L117.625 37L112.879 51.2351H109.973V61.4375H104.872V69.0893H101.046V81.8423H98.4952V48.6845H94.6693V43.5832H89.5681V38.482H71.7139V43.5832H66.6127V48.6845H62.7868V81.8423H57.6855V115H134.204V69.0893H130.378ZM65.3374 51.2351H69.1633V46.1338H74.2645V41.0326H87.0175V46.1338H92.1187V51.2351H95.9446V81.8423H65.3374V51.2351ZM116.349 112.45H60.2362V84.3929H116.349V112.45ZM131.653 112.45H118.9V81.8423H103.596V71.6399H107.422V63.9881H112.524V53.7857H114.718L117.625 45.0653L120.531 53.7857H122.726V63.9881H127.827V71.6399H131.653V112.45Z" fill="#441D06"/>
<path d="M67.8867 79.2917H75.5385V71.6399H67.8867V79.2917ZM70.4373 74.1905H72.9879V76.7411H70.4373V74.1905Z" fill="#441D06"/>
<path d="M76.8145 79.2917H84.4663V71.6399H76.8145V79.2917ZM79.3651 74.1905H81.9157V76.7411H79.3651V74.1905Z" fill="#441D06"/>
<path d="M85.7422 79.2917H93.394V71.6399H85.7422V79.2917ZM88.2928 74.1905H90.8434V76.7411H88.2928V74.1905Z" fill="#441D06"/>
<path d="M67.8864 86.9434V88.2187C67.8864 90.3315 66.1733 92.0446 64.0605 92.0446H62.7852V104.798H64.0605C66.1733 104.798 67.8864 106.511 67.8864 108.623V109.899H108.696V108.623C108.696 106.511 110.409 104.798 112.522 104.798H113.797V92.0446H112.522C110.409 92.0446 108.696 90.3315 108.696 88.2187V86.9434H67.8864ZM111.247 94.4675V102.375C108.744 102.889 106.788 104.845 106.273 107.348H70.3093C69.7943 104.845 67.8384 102.889 65.3358 102.375V94.4675C67.8384 93.9525 69.7943 91.9966 70.3093 89.494H106.273C106.788 91.9966 108.744 93.9525 111.247 94.4675Z" fill="#441D06"/>
<path d="M88.2925 92.0447C84.7705 92.0447 81.916 94.8992 81.916 98.4212C81.916 101.943 84.7705 104.798 88.2925 104.798C91.8139 104.798 94.669 101.943 94.669 98.4212C94.6647 94.901 91.8121 92.049 88.2925 92.0447ZM88.2925 102.247C86.1797 102.247 84.4666 100.534 84.4666 98.4212C84.4666 96.3083 86.1797 94.5953 88.2925 94.5953C90.4054 94.5953 92.1184 96.3083 92.1184 98.4212C92.1184 100.534 90.4054 102.247 88.2925 102.247Z" fill="#441D06"/>
<path d="M97.2188 97.146H102.32V99.6966H97.2188V97.146Z" fill="#441D06"/>
<path d="M74.2637 97.146H79.3649V99.6966H74.2637V97.146Z" fill="#441D06"/>
<path d="M116.35 63.9883H118.9V79.2919H116.35V63.9883Z" fill="#441D06"/>
<path d="M121.449 69.0891H124V109.899H121.449V69.0891Z" fill="#441D06"/>
<path d="M126.551 74.1904H129.101V109.899H126.551V74.1904Z" fill="#441D06"/>
<path d="M111.248 69.0891H113.799V79.2915H111.248V69.0891Z" fill="#441D06"/>
<path d="M106.146 74.1904H108.697V79.2917H106.146V74.1904Z" fill="#441D06"/>
</g>
<defs>
<clipPath id="clip0_1_4567">
<rect width="78" height="78" fill="white" transform="translate(57 37)"/>
</clipPath>
</defs>
</svg>
