<svg width="53" height="53" viewBox="0 0 53 53" fill="none" xmlns="http://www.w3.org/2000/svg">
<path d="M5.01562 52.2812H8.45312C8.92813 52.2812 9.3125 51.8965 9.3125 51.4219V45.4062H29.9375V51.4219C29.9375 51.8965 30.3219 52.2812 30.7969 52.2812H38.5312H43.6875H51.4219C51.8969 52.2812 52.2812 51.8965 52.2812 51.4219V38.5312C52.2812 38.3034 52.1906 38.0848 52.0295 37.9236L50.5625 36.4567V29.0781V1.57812C50.5625 1.10354 50.1781 0.71875 49.7031 0.71875H5.01562C2.64647 0.71875 0.71875 2.64647 0.71875 5.01562V47.9844C0.71875 50.3535 2.64647 52.2812 5.01562 52.2812ZM39.3906 50.5625V41.9688H42.8281V50.5625H39.3906ZM50.5625 50.5625H44.5469V41.1094C44.5469 40.6348 44.1625 40.25 43.6875 40.25H38.5312C38.0562 40.25 37.6719 40.6348 37.6719 41.1094V50.5625H31.6562V38.8871L41.1094 29.434L44.7986 33.1232C45.0454 33.3695 45.4146 33.443 45.7352 33.3095C46.0567 33.1765 46.2656 32.8631 46.2656 32.5156V29.9375H48.8438V36.8125C48.8438 37.0404 48.9344 37.259 49.0955 37.4201L50.5625 38.8871V50.5625ZM5.01562 2.4375H48.8438V28.2188H45.4062C44.9312 28.2188 44.5469 28.6035 44.5469 29.0781V30.441L41.717 27.6111C41.3813 27.2755 40.8375 27.2755 40.5018 27.6111L30.1893 37.9236C30.0281 38.0848 29.9375 38.3034 29.9375 38.5312V43.6875H9.3125V8.45312C9.3125 7.97854 8.92813 7.59375 8.45312 7.59375H5.01562C3.59396 7.59375 2.4375 6.43729 2.4375 5.01562C2.4375 3.59396 3.59396 2.4375 5.01562 2.4375ZM2.4375 8.45103C3.15589 8.99149 4.04883 9.3125 5.01562 9.3125H7.59375V50.5625H5.01562C3.59396 50.5625 2.4375 49.406 2.4375 47.9844V8.45103Z" fill="#441D06"/>
<path d="M12.75 35.9531H17.9062C18.3813 35.9531 18.7656 35.5683 18.7656 35.0938C18.7656 33.9734 19.484 33.0175 20.4844 32.6629V35.0938C20.4844 35.5683 20.8687 35.9531 21.3438 35.9531H27.3594C27.8344 35.9531 28.2188 35.5683 28.2188 35.0938V23.9219H45.4062C45.8813 23.9219 46.2656 23.5371 46.2656 23.0625V5.875C46.2656 5.40041 45.8813 5.01562 45.4062 5.01562H12.75C12.275 5.01562 11.8906 5.40041 11.8906 5.875V35.0938C11.8906 35.5683 12.275 35.9531 12.75 35.9531ZM44.5469 22.2031H34.2344V20.4844H36.8125C37.2875 20.4844 37.6719 20.0996 37.6719 19.625C37.6719 17.55 36.1931 15.8136 34.2344 15.4146V6.73438H44.5469V22.2031ZM23.0625 6.73438V15.3281H22.2031V17.0469H23.9219C24.3969 17.0469 24.7812 16.6621 24.7812 16.1875V6.73438H32.5156V16.1875C32.5156 16.6621 32.9 17.0469 33.375 17.0469C34.4954 17.0469 35.4513 17.7653 35.8063 18.7656H33.375C32.9 18.7656 32.5156 19.1504 32.5156 19.625V22.2031H27.3594C26.8844 22.2031 26.5 22.5879 26.5 23.0625V34.2344H22.2031V31.6562C22.2031 31.1817 21.8188 30.7969 21.3438 30.7969C19.2683 30.7969 17.5328 32.2756 17.1333 34.2344H13.6094V17.0469H19.625V15.3281H13.6094V6.73438H23.0625Z" fill="#441D06"/>
<path d="M11.0312 40.25H12.75V41.9688H11.0312V40.25Z" fill="#441D06"/>
<path d="M14.4688 40.25H16.1875V41.9688H14.4688V40.25Z" fill="#441D06"/>
<path d="M17.9062 40.25H19.625V41.9688H17.9062V40.25Z" fill="#441D06"/>
</svg>
