<svg width="58" height="58" viewBox="0 0 58 58" fill="none" xmlns="http://www.w3.org/2000/svg">
<circle cx="29" cy="29" r="29" fill="#441D06"/>
<g clip-path="url(#clip0_1_3863)">
<path d="M43.2778 20.25H36.3889V16.75C36.3889 15.782 35.6193 15 34.6667 15H24.3333C23.3807 15 22.6111 15.782 22.6111 16.75V20.25H15.7222C14.7696 20.25 14 21.032 14 22V42.125C14 42.6063 14.3875 43 14.8611 43H44.1389C44.6125 43 45 42.6063 45 42.125V22C45 21.032 44.2304 20.25 43.2778 20.25ZM22.6111 38.8438C22.6111 39.2047 22.3205 39.5 21.9653 39.5H19.8125C19.4573 39.5 19.1667 39.2047 19.1667 38.8438V36.6562C19.1667 36.2953 19.4573 36 19.8125 36H21.9653C22.3205 36 22.6111 36.2953 22.6111 36.6562V38.8438ZM22.6111 31.8438C22.6111 32.2047 22.3205 32.5 21.9653 32.5H19.8125C19.4573 32.5 19.1667 32.2047 19.1667 31.8438V29.6562C19.1667 29.2953 19.4573 29 19.8125 29H21.9653C22.3205 29 22.6111 29.2953 22.6111 29.6562V31.8438ZM31.2222 38.8438C31.2222 39.2047 30.9316 39.5 30.5764 39.5H28.4236C28.0684 39.5 27.7778 39.2047 27.7778 38.8438V36.6562C27.7778 36.2953 28.0684 36 28.4236 36H30.5764C30.9316 36 31.2222 36.2953 31.2222 36.6562V38.8438ZM31.2222 31.8438C31.2222 32.2047 30.9316 32.5 30.5764 32.5H28.4236C28.0684 32.5 27.7778 32.2047 27.7778 31.8438V29.6562C27.7778 29.2953 28.0684 29 28.4236 29H30.5764C30.9316 29 31.2222 29.2953 31.2222 29.6562V31.8438ZM32.0833 22.5469C32.0833 22.7273 31.938 22.875 31.7604 22.875H30.3611V24.2969C30.3611 24.4773 30.2158 24.625 30.0382 24.625H28.9618C28.7842 24.625 28.6389 24.4773 28.6389 24.2969V22.875H27.2396C27.062 22.875 26.9167 22.7273 26.9167 22.5469V21.4531C26.9167 21.2727 27.062 21.125 27.2396 21.125H28.6389V19.7031C28.6389 19.5227 28.7842 19.375 28.9618 19.375H30.0382C30.2158 19.375 30.3611 19.5227 30.3611 19.7031V21.125H31.7604C31.938 21.125 32.0833 21.2727 32.0833 21.4531V22.5469ZM39.8333 38.8438C39.8333 39.2047 39.5427 39.5 39.1875 39.5H37.0347C36.6795 39.5 36.3889 39.2047 36.3889 38.8438V36.6562C36.3889 36.2953 36.6795 36 37.0347 36H39.1875C39.5427 36 39.8333 36.2953 39.8333 36.6562V38.8438ZM39.8333 31.8438C39.8333 32.2047 39.5427 32.5 39.1875 32.5H37.0347C36.6795 32.5 36.3889 32.2047 36.3889 31.8438V29.6562C36.3889 29.2953 36.6795 29 37.0347 29H39.1875C39.5427 29 39.8333 29.2953 39.8333 29.6562V31.8438Z" fill="#FF9900"/>
</g>
<defs>
<clipPath id="clip0_1_3863">
<rect width="31" height="28" fill="white" transform="translate(14 15)"/>
</clipPath>
</defs>
</svg>
