<svg width="31" height="31" viewBox="0 0 31 31" fill="none" xmlns="http://www.w3.org/2000/svg">
<path d="M1.59093 9.22893C1.65985 7.72283 1.89567 6.75148 2.21459 5.92697L2.21888 5.91558C2.53491 5.07655 3.02999 4.31649 3.66966 3.68826L3.67863 3.67944L3.68745 3.67047C4.31619 3.02998 5.07654 2.53538 5.91483 2.22019L5.92928 2.21466C6.75192 1.89474 7.72137 1.65979 9.22872 1.59088M1.59093 9.22893C1.51847 10.8381 1.5 11.3369 1.5 15.5093C1.5 19.6824 1.51745 20.1801 1.59088 21.7897M1.59093 9.22893V9.63484M9.22872 1.59088C10.8383 1.51745 11.3369 1.5 15.5092 1.5C19.6814 1.5 20.1798 1.51845 21.789 1.5909M9.22872 1.59088H9.63568M1.59088 21.7897C1.65979 23.2971 1.89474 24.2665 2.21466 25.0891L2.22019 25.1037M1.59088 21.7897L1.61557 21.9196M1.59088 21.7897V21.3828M1.59093 9.63484C1.59656 9.50588 1.60263 9.37145 1.60913 9.22849C1.68465 7.58062 1.96478 6.6178 2.2318 5.9349C2.57738 5.04306 3.01514 4.37008 3.68392 3.69853C4.31961 3.04642 5.09239 2.54391 5.94626 2.22738C6.62614 1.96368 7.58641 1.68439 9.22806 1.60914C9.37148 1.60263 9.50632 1.59654 9.63568 1.59088M1.59093 9.63484C1.53129 10.9985 1.51847 11.7508 1.51847 15.5093C1.51847 19.2664 1.53129 20.0198 1.59088 21.3828M1.59093 9.63484L1.59088 21.3828M21.789 1.5909H21.3831M21.789 1.5909C23.2954 1.65981 24.2668 1.8956 25.0915 2.21454L25.1028 2.21888C25.9418 2.53491 26.7019 3.02999 27.3301 3.66966L27.3388 3.67854L27.3478 3.68727C27.9876 4.31554 28.4826 5.07583 28.7984 5.91509L28.8037 5.92928C29.1236 6.75192 29.3587 7.72137 29.4275 9.22873M9.63568 1.59088L21.3831 1.5909M9.63568 1.59088C10.9986 1.53129 11.7519 1.51847 15.5092 1.51847C19.2668 1.51847 20.02 1.5313 21.3831 1.5909M2.22019 25.1037C2.53538 25.9419 3.02998 26.7022 3.67047 27.331L3.67943 27.3398L3.68823 27.3487C4.31649 27.9884 5.07658 28.4836 5.91561 28.7995L5.92813 28.8042C6.75152 29.1236 7.72144 29.3586 9.22872 29.4276M2.22019 25.1037L2.2013 25.004M1.61557 21.9196L2.2013 25.004M1.61557 21.9196C1.69637 23.4299 1.95252 24.3469 2.2013 25.004M1.61557 21.9196C1.61328 21.877 1.61115 21.834 1.60914 21.7904C1.60263 21.647 1.59654 21.5122 1.59088 21.3828M21.3831 1.5909C21.5123 1.59656 21.647 1.60263 21.7904 1.60914C23.4382 1.68467 24.4005 1.96476 25.0834 2.23174C25.9782 2.57843 26.6526 3.01788 27.3263 3.69029C28.0014 4.36538 28.4406 5.04158 28.7869 5.93566C29.0519 6.61615 29.3336 7.57786 29.4092 9.22806C29.4845 10.8827 29.5 11.3954 29.5 15.5093C29.5 19.623 29.4845 20.1353 29.4092 21.7899C29.3342 23.4296 29.0564 24.3908 28.7907 25.0732C28.4752 25.9233 27.9755 26.693 27.3273 27.3272C26.6931 27.9757 25.9228 28.4757 25.0722 28.7911C24.3922 29.0548 23.432 29.334 21.7904 29.4093C20.1358 29.4846 19.6241 29.5 15.5092 29.5C11.3943 29.5 10.8831 29.4846 9.22849 29.4093C7.58889 29.3342 6.62748 29.0564 5.9452 28.7907C5.095 28.4752 4.32521 27.9754 3.6911 27.3272C3.04277 26.6929 2.54291 25.9227 2.22744 25.0723C2.21873 25.0499 2.21002 25.0272 2.2013 25.004M29.4275 21.7897C29.3587 23.2969 29.1236 24.2669 28.8043 25.0903L28.7996 25.1028C28.4835 25.9419 27.9884 26.7019 27.3487 27.3301L27.3397 27.3389L27.331 27.3479C26.7022 27.9884 25.9419 28.483 25.1036 28.7982L25.0891 28.8038C24.2665 29.1237 23.297 29.3586 21.7897 29.4276M13.0176 21.5245C13.8075 21.8517 14.6541 22.0201 15.5092 22.0201C17.236 22.0201 18.8921 21.3341 20.1132 20.1132C21.3342 18.8921 22.0202 17.236 22.0202 15.5093C22.0202 13.7824 21.3342 12.1263 20.1132 10.9053C18.8921 9.68422 17.236 8.99824 15.5092 8.99824C14.6541 8.99824 13.8075 9.16665 13.0176 9.49387C12.2276 9.82107 11.5099 10.3007 10.9053 10.9053C10.3007 11.5099 9.82109 12.2276 9.49387 13.0176C9.16667 13.8075 8.99826 14.6542 8.99826 15.5093C8.99826 16.3643 9.16667 17.2109 9.49387 18.0008C9.82109 18.7909 10.3007 19.5085 10.9053 20.1132C11.5099 20.7177 12.2276 21.1974 13.0176 21.5245ZM10.8908 10.8908C12.1157 9.66586 13.777 8.97773 15.5092 8.97773C17.2415 8.97773 18.9028 9.66586 20.1277 10.8908C21.3526 12.1157 22.0407 13.7769 22.0407 15.5093C22.0407 17.2414 21.3526 18.9027 20.1277 20.1276C18.9028 21.3526 17.2415 22.0406 15.5092 22.0406C13.777 22.0406 12.1157 21.3526 10.8908 20.1276C9.66588 18.9027 8.97774 17.2414 8.97774 15.5093C8.97774 13.7769 9.66588 12.1157 10.8908 10.8908ZM25.7185 7.45705C25.7185 7.95286 25.5215 8.42835 25.1711 8.77894C24.8205 9.12953 24.3449 9.32649 23.8492 9.32649C23.3533 9.32649 22.8779 9.12953 22.5273 8.77894C22.1767 8.42835 21.9797 7.95286 21.9797 7.45705C21.9797 6.96124 22.1767 6.48575 22.5273 6.13517C22.8779 5.78458 23.3533 5.58762 23.8492 5.58762C24.3449 5.58762 24.8205 5.78458 25.1711 6.13517C25.5215 6.48575 25.7185 6.96124 25.7185 7.45705Z" stroke="currentColor" stroke-linejoin="round"/>
</svg>
