<svg width="289" height="96" viewBox="0 0 289 96" fill="none" xmlns="http://www.w3.org/2000/svg">
<path fill-rule="evenodd" clip-rule="evenodd" d="M88.3673 23.3088C78.3141 32.17 73.345 41.0742 74.3503 46.8333C74.8242 49.6051 76.9498 51.0556 79.8078 51.9029C73.3737 43.9322 79.3482 33.1466 90.3636 23.3088H88.3673ZM117.148 5.74451C112.547 7.69442 108.072 9.92961 103.749 12.437H105.285C109.122 10.0828 113.082 7.93504 117.148 6.00302V5.74451Z" fill="currentColor"/>
<path fill-rule="evenodd" clip-rule="evenodd" d="M97.9324 61.3385C94.4856 66.3076 73.3165 87.7065 43.5591 95.9789C67.2989 91.7709 95.0744 73.3592 97.9324 61.3385Z" fill="currentColor"/>
<path fill-rule="evenodd" clip-rule="evenodd" d="M92.5896 75.1115C99.8423 71.8801 105.759 63.4354 103.777 57.1737C102.916 54.4881 100.991 52.1041 96.4673 50.8833C94.4136 50.3232 92.446 49.8206 90.7226 49.1886C83.4412 46.4599 82.6657 40.8589 86.7301 35.3009C80.5689 40.1982 81.9189 48.528 89.4875 51.3142C91.4981 52.0466 93.6667 52.4918 95.5768 53.1381C107.339 57.0445 99.2965 70.4583 92.5896 75.1115Z" fill="currentColor"/>
<path fill-rule="evenodd" clip-rule="evenodd" d="M286.559 36.6797L275.385 63.8089L263.896 36.6797H261.325L274.466 67.4999H276.175L289 36.6941L286.559 36.6797ZM221.773 51.9462C221.717 50.1906 222.012 48.4417 222.641 46.8017C223.27 45.1617 224.22 43.6638 225.435 42.3956C226.619 41.1819 228.034 40.2173 229.597 39.5587C231.159 38.9001 232.838 38.5608 234.533 38.5608C236.229 38.5608 237.907 38.9001 239.47 39.5587C241.033 40.2173 242.447 41.1819 243.631 42.3956C244.861 43.6555 245.823 45.151 246.46 46.7923C247.097 48.4335 247.395 50.1867 247.337 51.9462C247.421 55.4892 246.111 58.9236 243.689 61.511C242.526 62.7699 241.106 63.7639 239.525 64.4255C237.944 65.0871 236.239 65.4009 234.526 65.3456C232.822 65.3828 231.129 65.0605 229.558 64.3998C227.987 63.7391 226.572 62.7548 225.406 61.511C222.975 58.9306 221.668 55.4901 221.773 51.9462V51.9462ZM219.245 51.9462C219.171 54.0164 219.516 56.0803 220.262 58.0131C221.007 59.9459 222.137 61.7075 223.583 63.1914C225.009 64.635 226.716 65.771 228.598 66.5294C230.48 67.2877 232.498 67.6522 234.526 67.6004C236.554 67.653 238.572 67.2845 240.45 66.5182C242.329 65.7519 244.028 64.6045 245.441 63.1483C246.887 61.6677 248.02 59.9121 248.775 57.9855C249.53 56.0588 249.891 54.0003 249.836 51.9318C249.902 49.8619 249.547 47.8 248.792 45.8718C248.036 43.9435 246.896 42.1891 245.441 40.7153C244.025 39.2638 242.325 38.1204 240.447 37.3568C238.569 36.5931 236.553 36.2257 234.526 36.2776C232.488 36.2185 230.46 36.5896 228.574 37.3666C226.688 38.1436 224.988 39.3091 223.583 40.7871C222.153 42.2632 221.035 44.0118 220.295 45.9289C219.554 47.8459 219.207 49.8923 219.274 51.9462H219.245ZM192.418 38.8627C197.961 38.8627 200.704 41.0456 200.704 45.3972C200.727 46.342 200.521 47.2782 200.103 48.126C199.685 48.9737 199.069 49.7079 198.306 50.2658C196.783 51.5065 194.87 52.1679 192.906 52.1329H187.678V38.9488C189.545 38.9058 191.154 38.8627 192.418 38.8627ZM187.678 54.402H193.61L203.778 67.2126H206.736L196.051 53.9137C198.063 53.5186 199.889 52.4742 201.25 50.9408C202.6 49.4126 203.332 47.4362 203.304 45.3972C203.304 39.5233 199.713 36.5935 192.604 36.5935C192.389 36.5935 191.254 36.5935 189.244 36.5935C187.233 36.5935 185.941 36.5935 185.28 36.5935V67.2126H187.678V54.402ZM167.342 67.2126V64.9578H152.42V52.8653H165.59V50.5962H152.42V38.9488H166.911V36.6797H150.022V67.2126H167.342ZM120.925 38.9488V67.2126H123.324V38.9488H134.626V36.6797H109.623V38.9488H120.925ZM62.2148 67.2126V64.9578H47.293V52.8653H60.4627V50.5962H47.293V38.9488H61.7696V36.6797H44.8803V67.2126H62.2148ZM25.0898 36.6797H22.8207V63.0334L1.92447 36.6797H0V67.2126H2.26915V40.9595L23.1654 67.2126H25.0898V36.6797Z" fill="currentColor"/>
<path fill-rule="evenodd" clip-rule="evenodd" d="M99.5695 19.1012C99.3334 19.3831 99.0359 19.6073 98.6999 19.7566C98.3639 19.906 97.9982 19.9765 97.6307 19.9629C97.294 19.9748 96.9582 19.9201 96.6427 19.8018C96.3272 19.6834 96.0383 19.5039 95.7924 19.2736C95.3249 18.7756 95.0646 18.1183 95.0646 17.4353C95.0646 16.7523 95.3249 16.0949 95.7924 15.597C96.0138 15.3628 96.2811 15.177 96.5777 15.0509C96.8742 14.9249 97.1936 14.8614 97.5158 14.8645C98.2304 14.8232 98.9324 15.0658 99.469 15.5395L99.8137 14.9651C99.1414 14.4016 98.2755 14.1233 97.4009 14.1895C96.9891 14.1785 96.5798 14.2561 96.2007 14.4172C95.8215 14.5782 95.4815 14.819 95.2036 15.123C94.9108 15.4283 94.6813 15.7885 94.5285 16.1829C94.3756 16.5773 94.3025 16.9981 94.3131 17.4209C94.2938 17.8516 94.3656 18.2815 94.524 18.6824C94.6824 19.0834 94.9238 19.4464 95.2323 19.7475C95.5475 20.0471 95.9197 20.2803 96.3267 20.4333C96.7338 20.5862 97.1675 20.6558 97.602 20.6379C98.0421 20.6533 98.4803 20.5711 98.885 20.3973C99.2897 20.2235 99.651 19.9624 99.9429 19.6326L99.5695 19.1012ZM89.0998 14.3619H88.3818V20.5517H89.0998V14.3619ZM92.5179 14.3619L89.5163 17.3635L92.719 20.5517H93.6812L90.378 17.2342L93.4371 14.3619H92.5179ZM83.8004 14.9076C84.0849 14.8842 84.371 14.9225 84.6393 15.0199C84.9077 15.1173 85.1518 15.2715 85.355 15.472C85.5582 15.6724 85.7156 15.9144 85.8167 16.1814C85.9177 16.4484 85.9599 16.734 85.9403 17.0188H81.4882C81.4935 16.7239 81.5582 16.4332 81.6783 16.1639C81.7984 15.8945 81.9715 15.6522 82.1873 15.4511C82.403 15.2501 82.657 15.0946 82.9342 14.9938C83.2113 14.893 83.5059 14.8491 83.8004 14.8645V14.9076ZM86.0695 19.2161C85.807 19.4775 85.4921 19.6805 85.1456 19.8117C84.7991 19.9429 84.4288 19.9993 84.0589 19.9773C83.7318 20.0014 83.4032 19.9568 83.0942 19.8466C82.7853 19.7363 82.5028 19.5627 82.2648 19.3369C82.0269 19.1111 81.8387 18.8381 81.7124 18.5354C81.5861 18.2326 81.5244 17.9068 81.5312 17.5789H86.6296C86.6461 17.3877 86.6461 17.1955 86.6296 17.0044C86.6482 16.6303 86.5874 16.2564 86.4512 15.9074C86.3151 15.5585 86.1067 15.2422 85.8397 14.9794C85.292 14.4663 84.5651 14.1879 83.8147 14.2039C83.386 14.1829 82.9578 14.254 82.5589 14.4126C82.16 14.5711 81.7998 14.8134 81.5025 15.123C80.943 15.7601 80.6499 16.588 80.6839 17.4353C80.6653 17.8646 80.7362 18.2931 80.8919 18.6936C81.0477 19.0941 81.285 19.4579 81.5887 19.7619C81.9056 20.0632 82.2801 20.2975 82.6898 20.4505C83.0995 20.6035 83.5358 20.6721 83.9727 20.6523C84.3949 20.6756 84.8171 20.6083 85.211 20.4547C85.6049 20.3011 85.9613 20.0648 86.2562 19.7619L86.0695 19.2161ZM78.9892 20.523V14.3619H74.9823L74.8818 16.2863C74.965 17.4559 74.6401 18.6182 73.9626 19.5752C73.8839 19.6793 73.7818 19.7634 73.6645 19.8208C73.5473 19.8781 73.4182 19.9072 73.2876 19.9055V20.6092C73.5684 20.6334 73.8504 20.5807 74.1034 20.4567C74.3565 20.3327 74.5709 20.1422 74.7238 19.9055C75.2999 18.8383 75.5964 17.6426 75.5855 16.4299L75.6717 15.0656H78.2855V20.5517L78.9892 20.523ZM71.8084 20.523V14.3619H66.4228V20.5517H67.1409V14.9938H71.0903V20.5087L71.8084 20.523ZM58.5669 20.523V15.4103L61.0658 18.7422L63.4642 15.4103V20.5087H64.1823V14.3619H63.5361L61.0658 17.823L58.4233 14.3619H57.7483V20.5517L58.5669 20.523ZM52.8223 19.9773C52.4894 19.9905 52.1574 19.9334 51.8481 19.8097C51.5388 19.6859 51.259 19.4984 51.027 19.2592C50.7958 19.0169 50.6155 18.7306 50.4971 18.4172C50.3787 18.1039 50.3245 17.77 50.3377 17.4353C50.325 17.0985 50.3794 16.7625 50.4977 16.4469C50.6161 16.1313 50.796 15.8424 51.027 15.597C51.2626 15.3627 51.543 15.1784 51.8515 15.055C52.1599 14.9316 52.4901 14.8717 52.8223 14.8789C53.1547 14.8692 53.4856 14.9279 53.7944 15.0514C54.1033 15.175 54.3834 15.3607 54.6175 15.597C55.0696 16.1025 55.3196 16.757 55.3196 17.4353C55.3196 18.1135 55.0696 18.768 54.6175 19.2736C54.3776 19.5124 54.0895 19.6974 53.7726 19.8163C53.4556 19.9351 53.117 19.9851 52.7792 19.9629L52.8223 19.9773ZM50.4813 19.7475C50.9336 20.2187 51.5175 20.5425 52.1567 20.6765C52.7959 20.8106 53.4607 20.7487 54.0641 20.4989C54.6676 20.2491 55.1817 19.8231 55.5392 19.2766C55.8967 18.73 56.081 18.0883 56.068 17.4353C56.068 16.5744 55.726 15.7489 55.1173 15.1402C54.5086 14.5315 53.6831 14.1895 52.8223 14.1895C51.9614 14.1895 51.1359 14.5315 50.5272 15.1402C49.9185 15.7489 49.5765 16.5744 49.5765 17.4353C49.5596 17.8564 49.6271 18.2766 49.7751 18.6713C49.9231 19.0659 50.1486 19.4269 50.4382 19.7331L50.4813 19.7475ZM44.3201 14.3619H43.602V20.5517H44.3201V14.3619ZM47.7382 14.3619L44.7366 17.3635L47.9393 20.5517H48.9159L45.5983 17.2342L48.6574 14.3619H47.7382ZM33.5776 11.0874C33.5625 11.3352 33.6007 11.5834 33.6896 11.8152C33.7785 12.047 33.916 12.2571 34.0929 12.4313C34.2698 12.6055 34.482 12.7397 34.7152 12.825C34.9483 12.9103 35.1971 12.9446 35.4446 12.9257C35.6861 12.9414 35.9282 12.9074 36.156 12.8257C36.3837 12.744 36.5923 12.6164 36.7687 12.4507C36.9451 12.2851 37.0856 12.085 37.1814 11.8628C37.2773 11.6407 37.3265 11.4012 37.326 11.1592H36.6797C36.6817 11.3213 36.651 11.4821 36.5894 11.632C36.5279 11.782 36.4368 11.918 36.3215 12.0319C36.2062 12.1459 36.0691 12.2354 35.9185 12.2952C35.7678 12.355 35.6067 12.3838 35.4446 12.38C35.2795 12.3877 35.1146 12.3619 34.9598 12.3041C34.805 12.2462 34.6635 12.1575 34.544 12.0434C34.4245 11.9292 34.3294 11.792 34.2645 11.64C34.1996 11.488 34.1662 11.3245 34.1664 11.1592L33.5776 11.0874ZM37.4696 15.3959V20.5517H38.1877V14.3619H37.4696L33.3478 19.5177V14.3619H32.5723V20.5517H33.2904L37.4696 15.3959ZM27.6319 20.006C27.299 20.0192 26.967 19.9621 26.6577 19.8384C26.3484 19.7147 26.0686 19.5271 25.8367 19.2879C25.6007 19.0483 25.4165 18.7627 25.2955 18.449C25.1744 18.1353 25.1191 17.8 25.1329 17.464C25.1149 17.1284 25.1667 16.7927 25.2851 16.4782C25.4036 16.1637 25.586 15.8773 25.8209 15.6369C26.0558 15.3966 26.3381 15.2077 26.6498 15.0822C26.9616 14.9566 27.296 14.8972 27.6319 14.9076C27.9643 14.8979 28.2952 14.9566 28.6041 15.0802C28.9129 15.2037 29.193 15.3894 29.4271 15.6257C29.6581 15.8711 29.838 16.16 29.9564 16.4756C30.0747 16.7912 30.1291 17.1272 30.1164 17.464C30.1291 17.8008 30.0747 18.1368 29.9564 18.4524C29.838 18.768 29.6581 19.0569 29.4271 19.3023C29.1897 19.5304 28.9076 19.7069 28.5986 19.8206C28.2897 19.9343 27.9605 19.9827 27.6319 19.9629V20.006ZM25.2909 19.7762C25.7432 20.2474 26.3271 20.5712 26.9663 20.7052C27.6055 20.8393 28.2703 20.7774 28.8738 20.5276C29.4772 20.2779 29.9913 19.8519 30.3488 19.3053C30.7063 18.7587 30.8906 18.117 30.8776 17.464C30.8776 16.6032 30.5357 15.7776 29.927 15.1689C29.3183 14.5602 28.4927 14.2182 27.6319 14.2182C26.771 14.2182 25.9455 14.5602 25.3368 15.1689C24.7281 15.7776 24.3861 16.6032 24.3861 17.464C24.3788 17.8833 24.455 18.3 24.6103 18.6895C24.7657 19.0791 24.997 19.4339 25.2909 19.7331V19.7762ZM22.6484 20.5517V14.3619H18.6415L18.5409 16.2863C18.6091 17.4543 18.2856 18.6117 17.6218 19.5752C17.5415 19.6776 17.4391 19.7606 17.3222 19.8178C17.2053 19.875 17.0769 19.905 16.9468 19.9055V20.6092C17.2138 20.6207 17.4791 20.5617 17.7161 20.4382C17.953 20.3147 18.1533 20.1309 18.2968 19.9055C18.8889 18.844 19.191 17.6453 19.1728 16.4299L19.259 15.0656H21.8728V20.5517H22.6484ZM14.6776 15.3959V20.5517H15.3383V14.3619H14.6345L10.4984 19.5177V14.3619H9.78031V20.5517H10.4984L14.6776 15.3959ZM0 20.5517H0.876063L3.40372 17.2342L0.976594 14.3619H0.100531L2.59947 17.2342L0 20.5517ZM4.56701 14.3619H3.84893V20.5517H4.56701V14.3619ZM7.43935 14.3619L4.99787 17.2342L7.5686 20.4512H8.44466L5.80212 17.2342L8.28668 14.3619H7.43935Z" fill="currentColor"/>
<path fill-rule="evenodd" clip-rule="evenodd" d="M287.937 87.4335C287.941 87.5771 288 87.7138 288.101 87.8154C288.203 87.917 288.339 87.9756 288.483 87.9793C288.623 87.9719 288.754 87.9112 288.85 87.8096C288.947 87.708 289 87.5734 289 87.4335C288.996 87.2989 288.94 87.171 288.844 87.0772C288.747 86.9833 288.618 86.9308 288.483 86.9308C288.344 86.9269 288.21 86.9773 288.108 87.0712C288.006 87.1651 287.945 87.2951 287.937 87.4335V87.4335ZM288.842 78.3138H288.095V85.2936H288.842V78.3138ZM277.611 87.9505H278.473L281.029 84.7335L278.631 81.7463H277.755L280.211 84.7335L277.611 87.9505ZM282.164 81.7463H281.46V87.9505H282.164V81.7463ZM285.036 81.7463L282.609 84.7335L285.18 87.9505H286.056L283.413 84.7335L285.884 81.7463H285.036ZM273.762 87.3617C273.586 87.3884 273.405 87.3769 273.234 87.328C273.062 87.2791 272.902 87.194 272.766 87.0783C272.63 86.9626 272.52 86.8191 272.445 86.6574C272.369 86.4957 272.328 86.3196 272.326 86.141C272.326 85.308 273.102 84.8484 274.006 84.8484C274.583 84.839 275.147 85.0153 275.615 85.3511V86.3851C275.403 86.6841 275.124 86.9286 274.799 87.0984C274.475 87.2682 274.114 87.3585 273.748 87.3617H273.762ZM272.326 82.7947C272.853 82.483 273.452 82.3146 274.064 82.3064C274.983 82.3064 275.4 82.5793 275.5 83.2543C275.62 83.723 275.668 84.2072 275.644 84.6904C275.152 84.3497 274.561 84.1829 273.963 84.2165C273.359 84.1935 272.763 84.3702 272.269 84.7192C272.05 84.8868 271.876 85.1052 271.761 85.3555C271.646 85.6057 271.593 85.8803 271.608 86.1553C271.595 86.407 271.636 86.6587 271.728 86.8933C271.82 87.1279 271.961 87.3401 272.142 87.5156C272.323 87.691 272.54 87.8258 272.777 87.9107C273.014 87.9956 273.267 88.0288 273.518 88.008C273.93 88.0257 274.341 87.9404 274.712 87.7599C275.083 87.5794 275.403 87.3093 275.644 86.9739V87.9218H276.362V84.1016C276.362 82.45 275.715 81.6314 274.05 81.6314C273.354 81.6305 272.673 81.8246 272.082 82.1915L272.326 82.7947ZM267.687 82.4644V87.9505H268.405V82.4644H270.861V81.7463H265.231V82.4644H267.687ZM261.383 87.4048C261.05 87.4162 260.718 87.3583 260.409 87.2347C260.1 87.111 259.82 86.9244 259.587 86.6867C259.135 86.1812 258.885 85.5267 258.885 84.8484C258.885 84.1701 259.135 83.5157 259.587 83.0101C259.824 82.7778 260.104 82.5956 260.413 82.4747C260.721 82.3538 261.051 82.2965 261.383 82.3064C261.712 82.2942 262.04 82.3505 262.347 82.4716C262.653 82.5927 262.931 82.7761 263.163 83.0101C263.617 83.518 263.867 84.1749 263.867 84.8556C263.867 85.5363 263.617 86.1932 263.163 86.7011C262.924 86.9377 262.639 87.1224 262.325 87.2435C262.011 87.3646 261.676 87.4195 261.339 87.4048H261.383ZM259.027 87.1606C259.664 87.7501 260.5 88.0775 261.368 88.0775C262.236 88.0775 263.072 87.7501 263.709 87.1606C264.298 86.5347 264.626 85.7077 264.626 84.8484C264.626 83.9891 264.298 83.1621 263.709 82.5362C263.069 81.9529 262.234 81.6295 261.368 81.6295C260.502 81.6295 259.667 81.9529 259.027 82.5362C258.445 83.1653 258.121 83.9911 258.121 84.8484C258.121 85.7057 258.445 86.5315 259.027 87.1606V87.1606ZM256.385 87.9505V81.7463H252.306V83.6851C252.387 84.8545 252.062 86.0159 251.387 86.9739C251.307 87.0772 251.205 87.1607 251.088 87.218C250.971 87.2753 250.842 87.3048 250.712 87.3043V88.008C250.982 88.0176 251.25 87.9564 251.489 87.8305C251.729 87.7045 251.931 87.5181 252.076 87.2899C252.67 86.2298 252.968 85.0292 252.938 83.8144L253.024 82.4644H255.638V87.9505H256.385ZM248.414 82.7947V87.9505H249.132V81.7463H248.414L244.278 86.9165V81.7463H243.56V87.9505H244.278L248.414 82.7947ZM241.391 87.9505V81.7463H236.005V87.9505H236.724V82.4356H240.673V87.9505H241.391ZM225.981 78.5293C225.976 78.7751 226.023 79.0193 226.119 79.2457C226.215 79.472 226.358 79.6754 226.538 79.8424C226.719 80.0094 226.933 80.1361 227.166 80.2143C227.399 80.2924 227.646 80.3202 227.891 80.2958C228.133 80.3115 228.375 80.2775 228.602 80.1958C228.83 80.1141 229.039 79.9864 229.215 79.8208C229.392 79.6552 229.532 79.4551 229.628 79.2329C229.724 79.0107 229.773 78.7712 229.772 78.5293H229.112C229.116 78.69 229.087 78.8499 229.027 78.999C228.967 79.1482 228.877 79.2834 228.762 79.3964C228.648 79.5095 228.512 79.5979 228.362 79.6562C228.212 79.7145 228.052 79.7416 227.891 79.7357C227.727 79.7455 227.562 79.7215 227.407 79.6653C227.253 79.6091 227.111 79.5218 226.991 79.4087C226.872 79.2957 226.776 79.1594 226.711 79.0081C226.646 78.8569 226.613 78.6939 226.613 78.5293H225.981ZM229.873 82.8378V87.9936H230.591V81.7463H229.873L225.737 86.9165V81.7463H225.019V87.9505H225.722L229.873 82.8378ZM222.132 82.8378V87.9936H222.85V81.7463H222.146L218.025 86.9165V81.7463H217.307V87.9505H218.025L222.132 82.8378ZM215.095 87.9936V81.7463H214.377V87.2755H211.691V81.7463H210.973V87.2755H208.287V81.7463H207.569V87.9505L215.095 87.9936ZM205.645 86.5574C205.408 86.835 205.113 87.0563 204.78 87.2053C204.447 87.3544 204.085 87.4274 203.72 87.4191C203.037 87.4362 202.374 87.1893 201.868 86.7298C201.625 86.485 201.434 86.1931 201.308 85.872C201.182 85.5509 201.124 85.2075 201.135 84.8628C201.127 84.5283 201.186 84.1957 201.31 83.8847C201.433 83.5738 201.618 83.2909 201.853 83.0532C202.075 82.8191 202.342 82.6332 202.639 82.5071C202.935 82.3811 203.255 82.3177 203.577 82.3208C204.295 82.2818 205.001 82.5239 205.544 82.9958L205.875 82.4213C205.202 81.8578 204.336 81.5795 203.462 81.6458C203.05 81.6347 202.641 81.7123 202.262 81.8734C201.882 82.0345 201.542 82.2752 201.265 82.5793C200.975 82.883 200.748 83.2413 200.598 83.6332C200.447 84.0252 200.376 84.4431 200.388 84.8628C200.369 85.2944 200.439 85.7254 200.595 86.1284C200.751 86.5313 200.988 86.8976 201.293 87.2037C201.608 87.5033 201.981 87.7365 202.388 87.8895C202.795 88.0424 203.228 88.112 203.663 88.0941C204.103 88.1105 204.542 88.0288 204.947 87.855C205.351 87.6811 205.713 87.4194 206.004 87.0888L205.645 86.5574ZM198.651 81.7606H197.933V87.9649H198.651V81.7606ZM193.94 84.5181C195.146 84.5181 195.75 84.9968 195.75 85.9543C195.75 86.8734 195.247 87.3904 193.926 87.3904H192.992V84.5037L193.94 84.5181ZM193.94 87.9649C195.735 87.9649 196.482 87.1032 196.482 85.8824C196.482 84.6617 195.663 83.8431 194.026 83.8431H192.949V81.7463H192.231V87.9505L193.94 87.9649ZM187.678 82.3782C188.827 82.3782 189.402 82.7372 189.402 83.4266C189.402 84.116 188.856 84.5037 187.966 84.5037H186.328V82.4069L187.678 82.3782ZM187.808 85.0926C189.028 85.0926 189.646 85.4516 189.646 86.1697C189.646 86.8878 188.985 87.3186 187.707 87.3186H186.271V85.0926H187.808ZM185.596 87.9649H186.544H187.621C189.474 87.9649 190.393 87.3904 190.393 86.2128C190.393 85.3654 189.904 84.8771 188.957 84.7766C189.304 84.731 189.623 84.5598 189.853 84.2953C190.084 84.0307 190.209 83.6911 190.206 83.3404C190.206 82.2346 189.359 81.7463 187.635 81.7463H186.529C186.099 81.7463 185.797 81.7463 185.639 81.7463L185.596 87.9649Z" fill="currentColor"/>
<path fill-rule="evenodd" clip-rule="evenodd" d="M108.89 3.92074C108.89 3.92074 121.902 0.359042 128.02 0C125.308 3.27801 122.123 6.13381 118.57 8.47339C119.216 7.20956 121.169 5.04095 120.394 4.25106C119.374 3.2601 115.094 3.18829 108.89 3.92074Z" fill="currentColor"/>
</svg>
