<svg width="203" height="29" viewBox="0 0 203 29" fill="none" xmlns="http://www.w3.org/2000/svg">
<path fill-rule="evenodd" clip-rule="evenodd" d="M201.203 0.642578L193.303 19.8458L185.202 0.642578H183.402L192.702 22.4462H193.903L203.003 0.642578H201.203Z" fill="currentColor"/>
<path fill-rule="evenodd" clip-rule="evenodd" d="M131.502 2.344C135.402 2.344 137.403 3.84425 137.403 6.94477C137.403 8.34501 136.803 9.44519 135.702 10.3453C134.602 11.2455 133.302 11.6456 131.902 11.6456H128.202V2.44402C129.502 2.344 130.602 2.344 131.502 2.344ZM128.102 13.3458H132.302L139.503 22.4474H141.603L134.002 13.0458C135.502 12.7457 136.702 12.0456 137.703 10.9454C138.703 9.84526 139.203 8.54504 139.203 7.04479C139.203 2.84409 136.703 0.84375 131.602 0.84375C131.402 0.84375 130.602 0.84375 129.202 0.84375C127.802 0.84375 126.902 0.84375 126.402 0.84375V22.4474H128.102V13.3458V13.3458Z" fill="currentColor"/>
<path fill-rule="evenodd" clip-rule="evenodd" d="M114.703 22.3497V20.7494H104.102V12.248H113.503V10.6478H104.102V2.34636H114.403V0.746094H102.402V22.3497H114.703Z" fill="currentColor"/>
<path fill-rule="evenodd" clip-rule="evenodd" d="M82.8048 2.34636V22.3497H84.5048V2.34636H92.505V0.746094H74.8047V2.34636H82.8048Z" fill="currentColor"/>
<path fill-rule="evenodd" clip-rule="evenodd" d="M64.8017 17.0457C64.8017 18.346 64.3017 19.3461 63.3017 20.0462C62.3017 20.7464 61.1017 21.1464 59.7017 21.1464C57.6016 21.1464 55.3016 20.1463 54.1016 18.446L53.1016 19.6462C53.6016 20.6463 54.5016 21.3465 55.8016 21.9466C57.1016 22.5467 58.4016 22.7467 59.7017 22.7467C61.6017 22.7467 63.3017 22.2466 64.6017 21.1464C65.9018 20.1463 66.6018 18.746 66.6018 17.0457C66.6018 9.54448 55.4016 11.9449 55.4016 5.94387C55.4016 3.64349 57.2016 2.14324 60.0017 2.14324C62.0017 2.14324 63.6017 2.74334 64.8017 4.04356L65.7018 2.74334C64.5017 1.3431 62.3017 0.542969 59.9017 0.542969C58.0016 0.542969 56.4016 1.04305 55.3016 2.04322C54.2016 3.04339 53.6016 4.34361 53.6016 5.94387C53.6016 13.0451 64.8017 10.9447 64.8017 17.0457Z" fill="currentColor"/>
<path fill-rule="evenodd" clip-rule="evenodd" d="M43.101 22.3497V20.7494H32.5008V12.248H41.801V10.6478H32.5008V2.34636H42.801V0.746094H30.8008V22.3497H43.101Z" fill="currentColor"/>
<path fill-rule="evenodd" clip-rule="evenodd" d="M17.7003 0.746094H16.1002V19.4492L1.40002 0.746094H0V22.3497H1.60002V3.7466L16.4003 22.3497H17.7003V0.746094Z" fill="currentColor"/>
<path fill-rule="evenodd" clip-rule="evenodd" d="M163.503 0.439453C171.203 0.439453 177.403 6.64049 177.403 14.3418C177.403 22.0431 171.203 28.2441 163.503 28.2441H0V26.4438H156.702H163.503C170.203 26.4438 175.703 21.0429 175.703 14.2418C175.703 7.54064 170.303 2.03972 163.503 2.03972C156.802 2.03972 151.302 7.44063 151.302 14.2418C151.302 17.2423 152.402 20.0427 154.302 22.2431H152.002C150.402 19.9427 149.502 17.2423 149.502 14.2418C149.502 6.74051 155.802 0.439453 163.503 0.439453Z" fill="currentColor"/>
<path fill-rule="evenodd" clip-rule="evenodd" d="M202.104 26.543H173.503C172.603 27.2431 171.703 27.8432 170.703 28.3433H202.004V26.543H202.104Z" fill="currentColor"/>
</svg>
