<svg width="35" height="35" viewBox="0 0 35 35" fill="none" xmlns="http://www.w3.org/2000/svg">
<path d="M5.82911 9.03617L16.6624 15.4154C17.0264 15.6292 17.4973 15.7305 17.9711 15.7305C18.4449 15.7305 18.9158 15.6292 19.2798 15.4154L30.1131 9.03617C30.8194 8.61975 31.4868 7 30.1911 7H5.75256C4.45689 7 5.12422 8.61975 5.82911 9.03617ZM30.441 12.5243L19.2798 18.9003C18.7887 19.1822 18.4449 19.2154 17.9711 19.2154C17.4973 19.2154 17.1536 19.1822 16.6624 18.9003C16.1713 18.6185 6.35922 12.9802 5.55756 12.5227C4.99422 12.1997 5 12.5781 5 12.8694V24.4167C5 25.0817 5.81756 26 6.44445 26H29.5556C30.1824 26 31 25.0817 31 24.4167V12.871C31 12.5797 31.0058 12.2013 30.441 12.5243Z" fill="currentColor"/>
</svg>
