<svg width="35" height="35" viewBox="0 0 35 35" fill="none" xmlns="http://www.w3.org/2000/svg">
<path d="M17.5 16.0417C18.7081 16.0417 19.6875 15.0624 19.6875 13.8542C19.6875 12.6461 18.7081 11.6667 17.5 11.6667C16.2919 11.6667 15.3125 12.6461 15.3125 13.8542C15.3125 15.0624 16.2919 16.0417 17.5 16.0417Z" fill="currentColor"/>
<path d="M17.4999 2.91675C14.4258 2.91659 11.4759 4.12973 9.29131 6.29249C7.10671 8.45524 5.86399 11.3928 5.83325 14.4667C5.83325 22.4584 16.1145 31.3542 16.552 31.7334C16.8162 31.9594 17.1523 32.0835 17.4999 32.0835C17.8475 32.0835 18.1837 31.9594 18.4478 31.7334C18.9583 31.3542 29.1666 22.4584 29.1666 14.4667C29.1358 11.3928 27.8931 8.45524 25.7085 6.29249C23.5239 4.12973 20.574 2.91659 17.4999 2.91675ZM17.4999 18.9584C16.4904 18.9584 15.5036 18.6591 14.6642 18.0982C13.8248 17.5374 13.1706 16.7402 12.7843 15.8075C12.398 14.8749 12.2969 13.8486 12.4938 12.8585C12.6908 11.8684 13.1769 10.9589 13.8907 10.2451C14.6046 9.53123 15.514 9.0451 16.5041 8.84816C17.4943 8.65121 18.5205 8.75229 19.4532 9.13861C20.3859 9.52494 21.183 10.1791 21.7439 11.0185C22.3047 11.8579 22.6041 12.8447 22.6041 13.8542C22.6041 15.208 22.0663 16.5062 21.1091 17.4634C20.1519 18.4207 18.8536 18.9584 17.4999 18.9584Z" fill="currentColor"/>
</svg>
