<svg width="191" height="152" viewBox="0 0 191 152" fill="none" xmlns="http://www.w3.org/2000/svg">
<g clip-path="url(#clip0_331_2589)">
<path d="M67.3512 100.863C67.3681 100.874 67.3906 100.869 67.4075 100.88C67.5405 100.954 67.6892 100.995 67.8413 101C67.9251 101 68.0085 100.989 68.0892 100.966L88.4999 95.4051L108.91 100.966C108.991 100.989 109.075 101 109.158 101C109.31 100.996 109.459 100.954 109.59 100.878C109.609 100.869 109.63 100.873 109.647 100.861L126.549 90.5488C126.724 90.4418 126.859 90.2808 126.933 90.0902C127.008 89.8997 127.018 89.6901 126.962 89.4932L117.602 56.6807C117.564 56.544 117.495 56.4179 117.401 56.3117C117.306 56.2056 117.189 56.1223 117.058 56.0681C116.926 56.0139 116.784 55.9903 116.642 55.9989C116.5 56.0076 116.362 56.0484 116.239 56.1182L106.92 61.3382C106.716 61.4668 106.569 61.6689 106.51 61.9025C106.451 62.1361 106.484 62.3835 106.602 62.5934C106.721 62.8034 106.915 62.9599 107.146 63.0306C107.377 63.1013 107.626 63.0807 107.842 62.9732L116.122 58.3326L124.962 89.3188L109.91 98.5045L106.334 69.9463C106.303 69.6994 106.175 69.4749 105.978 69.3221C105.782 69.1693 105.532 69.1008 105.285 69.1316C105.038 69.1625 104.813 69.2901 104.66 69.4865C104.507 69.6829 104.438 69.9319 104.469 70.1788L108.05 98.7895L89.4389 93.7176V88.5988C89.4389 88.3502 89.34 88.1117 89.1639 87.9359C88.9878 87.7601 88.7489 87.6613 88.4999 87.6613C88.2508 87.6613 88.012 87.7601 87.8359 87.9359C87.6598 88.1117 87.5608 88.3502 87.5608 88.5988V93.7176L68.9475 98.7895L72.5289 70.1788C72.5442 70.0566 72.5352 69.9325 72.5025 69.8137C72.4698 69.6949 72.4139 69.5838 72.3382 69.4865C72.2624 69.3893 72.1682 69.3079 72.0609 69.247C71.9536 69.1861 71.8354 69.1469 71.7129 69.1316C71.5905 69.1164 71.4662 69.1253 71.3472 69.158C71.2282 69.1907 71.1169 69.2465 71.0195 69.3221C70.9221 69.3978 70.8406 69.4918 70.7796 69.5989C70.7186 69.706 70.6793 69.8241 70.664 69.9463L67.0901 98.5045L52.0375 89.3207L60.8775 58.3363L69.1578 62.977C69.3738 63.0845 69.6229 63.105 69.8537 63.0343C70.0844 62.9636 70.2791 62.8071 70.3975 62.5972C70.516 62.3872 70.549 62.1398 70.4899 61.9062C70.4308 61.6726 70.284 61.4706 70.08 61.342L60.7592 56.1201C60.6357 56.0495 60.4977 56.0081 60.3558 55.999C60.2138 55.99 60.0716 56.0135 59.9402 56.0678C59.8087 56.1221 59.6915 56.2058 59.5974 56.3123C59.5034 56.4189 59.435 56.5455 59.3976 56.6826L50.0374 89.4951C49.9808 89.6919 49.9906 89.9019 50.0652 90.0926C50.1399 90.2834 50.2753 90.4443 50.4506 90.5507L67.3512 100.863Z" fill="#441D06"/>
<path d="M87.8634 84.815C88.0358 84.9739 88.2615 85.0626 88.4961 85.0636C88.7307 85.0647 88.9573 84.978 89.1311 84.8206C89.7565 84.2525 104.463 70.7787 104.463 56.9375C104.463 47.9994 97.4527 41 88.5 41C79.5474 41 72.5366 47.9994 72.5366 56.9375C72.5366 70.5387 87.238 84.2375 87.8634 84.815V84.815ZM88.5 42.875C96.5287 42.875 102.585 48.92 102.585 56.9375C102.585 68.3694 91.3303 80.0694 88.5057 82.8256C85.6867 80.0375 74.4147 68.1837 74.4147 56.9375C74.4147 48.92 80.4714 42.875 88.5 42.875Z" fill="#441D06"/>
<path d="M96.9513 56.9375C96.9513 52.2856 93.1595 48.5 88.5 48.5C83.8406 48.5 80.0488 52.2856 80.0488 56.9375C80.0488 61.5894 83.8406 65.375 88.5 65.375C93.1595 65.375 96.9513 61.5894 96.9513 56.9375ZM88.5 63.5C84.8754 63.5 81.9269 60.5562 81.9269 56.9375C81.9269 53.3188 84.8754 50.375 88.5 50.375C92.1247 50.375 95.0732 53.3188 95.0732 56.9375C95.0732 60.5562 92.1247 63.5 88.5 63.5Z" fill="#441D06"/>
</g>
<line x1="121" y1="150.75" x2="191" y2="150.75" stroke="#441D06" stroke-width="2.5"/>
<line y1="150.75" x2="93" y2="150.75" stroke="#441D06" stroke-width="2.5"/>
<path d="M55.8528 144.391C39.1743 136.307 26.0246 122.407 18.8777 105.306C11.7307 88.2055 11.0791 69.0824 17.0455 51.5348C23.0118 33.9872 35.1848 19.2246 51.2744 10.0244C67.3639 0.82423 86.2609 -2.17937 104.41 1.5787C122.559 5.33677 138.71 15.5975 149.823 30.4304C160.936 45.2633 166.246 63.6459 164.753 82.12C163.261 100.594 155.069 117.886 141.719 130.742C128.369 143.599 110.781 151.134 92.2635 151.93L92.1596 149.512C110.087 148.742 127.115 141.447 140.04 129C152.965 116.552 160.896 99.8109 162.341 81.9251C163.786 64.0393 158.646 46.2419 147.886 31.8812C137.127 17.5206 121.491 7.5866 103.919 3.94818C86.3481 0.309766 68.0528 3.21773 52.4755 12.125C36.8982 21.0323 25.1128 35.3248 19.3364 52.3138C13.56 69.3027 14.1909 87.8169 21.1103 104.373C28.0297 120.93 40.7607 134.387 56.9081 142.213L55.8528 144.391Z" fill="#441D06"/>
<defs>
<clipPath id="clip0_331_2589">
<rect width="77" height="60" fill="white" transform="translate(50 41)"/>
</clipPath>
</defs>
</svg>
