<svg width="55" height="43" viewBox="0 0 55 43" fill="none" xmlns="http://www.w3.org/2000/svg">
<path d="M54.1401 42.9844H0.862305C0.38707 42.9844 0.00292969 42.6002 0.00292969 42.125C0.00292969 41.6498 0.38707 41.2656 0.862305 41.2656H54.1401C54.6153 41.2656 54.9995 41.6498 54.9995 42.125C54.9995 42.6002 54.6153 42.9844 54.1401 42.9844Z" fill="#441D06"/>
<path d="M54.1396 42.9844C53.6644 42.9844 53.2803 42.6003 53.2803 42.1251V15.4741C53.2803 14.9989 53.6644 14.6147 54.1396 14.6147C54.6149 14.6147 54.999 14.9989 54.999 15.4741V42.1251C54.999 42.6003 54.6149 42.9844 54.1396 42.9844Z" fill="#441D06"/>
<path d="M36.9521 42.9844C36.4769 42.9844 36.0928 42.6003 36.0928 42.1251V15.4741C36.0928 14.9989 36.4769 14.6147 36.9521 14.6147C37.4274 14.6147 37.8115 14.9989 37.8115 15.4741V42.1251C37.8115 42.6003 37.4274 42.9844 36.9521 42.9844Z" fill="#441D06"/>
<path d="M18.0479 42.9844C17.5726 42.9844 17.1885 42.6003 17.1885 42.1251V15.4741C17.1885 14.9989 17.5726 14.6147 18.0479 14.6147C18.5231 14.6147 18.9072 14.9989 18.9072 15.4741V42.1251C18.9072 42.6003 18.5231 42.9844 18.0479 42.9844Z" fill="#441D06"/>
<path d="M0.860351 42.9844C0.385117 42.9844 0.000976562 42.6003 0.000976562 42.1251V15.4741C0.000976562 14.9989 0.385117 14.6147 0.860351 14.6147C1.33559 14.6147 1.71973 14.9989 1.71973 15.4741V42.1251C1.71973 42.6003 1.33559 42.9844 0.860351 42.9844Z" fill="#441D06"/>
<path d="M54.1398 16.3335H52.4219C51.9466 16.3335 51.5625 15.9494 51.5625 15.4741C51.5625 14.9989 51.9466 14.6147 52.4219 14.6147H54.1398C54.615 14.6147 54.9991 14.9989 54.9991 15.4741C54.9991 15.9494 54.615 16.3335 54.1398 16.3335Z" fill="#441D06"/>
<path d="M2.57922 16.3335H0.861328C0.386094 16.3335 0.00195312 15.9494 0.00195312 15.4741C0.00195312 14.9989 0.386094 14.6147 0.861328 14.6147H2.57922C3.05445 14.6147 3.43859 14.9989 3.43859 15.4741C3.43859 15.9494 3.05445 16.3335 2.57922 16.3335Z" fill="#441D06"/>
<path d="M38.6718 16.3335H35.2334C34.7582 16.3335 34.374 15.9494 34.374 15.4741C34.374 14.9989 34.7582 14.6147 35.2334 14.6147H38.6718C39.147 14.6147 39.5311 14.9989 39.5311 15.4741C39.5311 15.9494 39.147 16.3335 38.6718 16.3335Z" fill="#441D06"/>
<path d="M19.7684 16.3335H16.3301C15.8548 16.3335 15.4707 15.9494 15.4707 15.4741C15.4707 14.9989 15.8548 14.6147 16.3301 14.6147H19.7684C20.2437 14.6147 20.6278 14.9989 20.6278 15.4741C20.6278 15.9494 20.2437 16.3335 19.7684 16.3335Z" fill="#441D06"/>
<path d="M40.3926 36.1042C39.9173 36.1042 39.5332 35.72 39.5332 35.2448V20.6492C39.5332 20.1739 39.9173 19.7898 40.3926 19.7898C40.8678 19.7898 41.252 20.1739 41.252 20.6492V35.2448C41.252 35.72 40.8678 36.1042 40.3926 36.1042Z" fill="#441D06"/>
<path d="M40.3916 21.5085C39.9164 21.5085 39.5322 21.1244 39.5322 20.6492C39.5322 19.2278 40.6898 18.071 42.1112 18.071C42.5864 18.071 42.9706 18.4552 42.9706 18.9304C42.9706 19.4057 42.5864 19.7898 42.1112 19.7898C41.6368 19.7898 41.251 20.1748 41.251 20.6492C41.251 21.1244 40.8668 21.5085 40.3916 21.5085Z" fill="#441D06"/>
<path d="M43.8301 39.5415C42.682 39.5415 41.6026 39.0946 40.7913 38.2842C39.9801 37.473 39.5323 36.3936 39.5332 35.2446C39.5332 34.7694 39.9182 34.3853 40.3926 34.3853C40.8678 34.3853 41.252 34.7703 41.252 35.2446C41.252 35.9347 41.5201 36.5827 42.0065 37.0682C42.4929 37.5546 43.14 37.8228 43.8301 37.8228C44.3053 37.8228 44.6895 38.2069 44.6895 38.6821C44.6895 39.1574 44.3053 39.5415 43.8301 39.5415Z" fill="#441D06"/>
<path d="M50.7031 36.1042C50.2279 36.1042 49.8438 35.72 49.8438 35.2448V20.6492C49.8438 20.1739 50.2279 19.7898 50.7031 19.7898C51.1784 19.7898 51.5625 20.1739 51.5625 20.6492V35.2448C51.5625 35.72 51.1784 36.1042 50.7031 36.1042Z" fill="#441D06"/>
<path d="M50.7031 21.5085C50.2279 21.5085 49.8438 21.1244 49.8438 20.6492C49.8438 20.1748 49.4588 19.7898 48.9844 19.7898C48.5091 19.7898 48.125 19.4057 48.125 18.9304C48.125 18.4552 48.5091 18.071 48.9844 18.071C50.4058 18.071 51.5625 19.2278 51.5625 20.6492C51.5625 21.1244 51.1784 21.5085 50.7031 21.5085Z" fill="#441D06"/>
<path d="M47.2646 39.5415C46.7894 39.5415 46.4053 39.1574 46.4053 38.6821C46.4053 38.2069 46.7894 37.8228 47.2646 37.8228C48.6861 37.8228 49.8436 36.666 49.8436 35.2446C49.8436 34.7694 50.2278 34.3853 50.703 34.3853C51.1782 34.3853 51.5624 34.7694 51.5624 35.2446C51.5624 37.6139 49.6348 39.5415 47.2646 39.5415Z" fill="#441D06"/>
<path d="M48.9846 19.7898H42.1113C41.6361 19.7898 41.252 19.4057 41.252 18.9304C41.252 18.4552 41.6361 18.071 42.1113 18.071H48.9846C49.4598 18.071 49.844 18.4552 49.844 18.9304C49.844 19.4057 49.4598 19.7898 48.9846 19.7898Z" fill="#441D06"/>
<path d="M48.1423 30.9514C48.138 30.9522 48.1311 30.9514 48.1251 30.9514H42.9697C42.7411 30.9514 42.5229 30.8611 42.3621 30.6996C42.2014 30.538 42.1104 30.3197 42.1104 30.092L42.1112 22.3662C42.1112 21.891 42.4962 21.5068 42.9706 21.5068H48.1243C48.5986 21.5068 48.9836 21.891 48.9836 22.3662L48.9845 29.9201C48.9957 29.9751 49.0017 30.0335 49.0017 30.092C49.0017 30.5672 48.6167 30.9514 48.1423 30.9514ZM43.8291 29.2326H47.2657L47.2649 23.2256H43.83L43.8291 29.2326Z" fill="#441D06"/>
<path d="M48.9842 33.5296C48.6241 33.5296 48.2889 33.3018 48.1695 32.9417L47.3101 30.3636C47.1597 29.9133 47.4029 29.426 47.8532 29.2765C48.3061 29.1253 48.7908 29.3693 48.9404 29.8196L49.7997 32.3978C49.9501 32.8481 49.7069 33.3353 49.2566 33.4849C49.1655 33.5149 49.0736 33.5296 48.9842 33.5296Z" fill="#441D06"/>
<path d="M42.1101 33.5295C42.0207 33.5295 41.9287 33.5149 41.8385 33.4848C41.3891 33.3353 41.145 32.8489 41.2954 32.3977L42.1548 29.8196C42.3052 29.3701 42.7864 29.1252 43.2419 29.2764C43.6913 29.426 43.9354 29.9124 43.785 30.3635L42.9256 32.9417C42.8053 33.3017 42.4702 33.5295 42.1101 33.5295Z" fill="#441D06"/>
<path d="M45.5467 34.3889C43.4558 34.3881 42.2063 34.1019 41.6116 33.4883C41.273 33.1385 41.2463 32.781 41.2515 32.6435C41.2661 32.1786 41.6477 31.8108 42.1092 31.8108C42.1186 31.8108 42.1272 31.8108 42.1367 31.8116C42.477 31.822 42.7649 32.0291 42.8955 32.3204C43.0708 32.4141 43.717 32.6693 45.5467 32.6702C47.3771 32.6702 48.0234 32.4149 48.1987 32.3213C48.3285 32.0291 48.6163 31.822 48.9575 31.8116C48.967 31.8108 48.9756 31.8108 48.985 31.8108C49.4465 31.8108 49.8281 32.1786 49.8427 32.6435C49.8478 32.781 49.8212 33.1394 49.4817 33.4891C48.887 34.1027 47.6367 34.3889 45.5467 34.3889Z" fill="#441D06"/>
<path d="M47.265 39.5415H43.8301C43.3548 39.5415 42.9707 39.1574 42.9707 38.6821C42.9707 38.2069 43.3548 37.8228 43.8301 37.8228H47.265C47.7402 37.8228 48.1244 38.2069 48.1244 38.6821C48.1244 39.1574 47.7402 39.5415 47.265 39.5415Z" fill="#441D06"/>
<path d="M51.5625 30.9514H50.7031C50.2279 30.9514 49.8438 30.5673 49.8438 30.092C49.8438 29.6168 50.2279 29.2327 50.7031 29.2327H51.5625C52.0377 29.2327 52.4219 29.6168 52.4219 30.092C52.4219 30.5673 52.0377 30.9514 51.5625 30.9514Z" fill="#441D06"/>
<path d="M40.3916 30.9514H39.5322C39.057 30.9514 38.6729 30.5673 38.6729 30.092C38.6729 29.6168 39.057 29.2327 39.5322 29.2327H40.3916C40.8668 29.2327 41.251 29.6168 41.251 30.092C41.251 30.5673 40.8668 30.9514 40.3916 30.9514Z" fill="#441D06"/>
<path d="M42.9714 23.2255C42.6939 23.2255 42.4206 23.0915 42.2556 22.8431L40.2816 19.8843C40.0178 19.4898 40.1243 18.9562 40.5196 18.6923C40.9124 18.4294 41.4478 18.5351 41.7116 18.9304L43.6856 21.8892C43.9494 22.2837 43.8428 22.8173 43.4475 23.0812C43.3014 23.1783 43.1347 23.2255 42.9714 23.2255Z" fill="#441D06"/>
<path d="M48.1246 23.2238C47.9614 23.2238 47.7946 23.1766 47.6485 23.0795C47.2532 22.8156 47.1467 22.282 47.4105 21.8875L49.3845 18.9304C49.6483 18.5351 50.182 18.4294 50.5764 18.6923C50.9717 18.9562 51.0783 19.4898 50.8145 19.8843L48.8405 22.8414C48.6746 23.0898 48.4022 23.2238 48.1246 23.2238Z" fill="#441D06"/>
<path d="M22.3447 18.0487C21.8695 18.0487 21.4854 17.6646 21.4854 17.1894V2.59375C21.4854 2.11852 21.8695 1.73438 22.3447 1.73438C22.82 1.73438 23.2041 2.11852 23.2041 2.59375V17.1894C23.2041 17.6646 22.82 18.0487 22.3447 18.0487Z" fill="#441D06"/>
<path d="M22.3438 3.45141C21.8685 3.45141 21.4844 3.06726 21.4844 2.59203C21.4844 1.17148 22.642 0.015625 24.0634 0.015625C24.5386 0.015625 24.9227 0.399766 24.9227 0.875C24.9227 1.35023 24.5386 1.73437 24.0634 1.73437C23.589 1.73437 23.2031 2.11852 23.2031 2.59203C23.2031 3.06726 22.819 3.45141 22.3438 3.45141Z" fill="#441D06"/>
<path d="M25.7822 21.4861C24.6341 21.4861 23.5547 21.0392 22.7435 20.228C21.9322 19.4167 21.4845 18.3373 21.4854 17.1892C21.4854 16.714 21.8704 16.3298 22.3447 16.3298C22.82 16.3298 23.2041 16.7148 23.2041 17.1892C23.2041 17.8784 23.4722 18.5264 23.9586 19.0128C24.445 19.4992 25.093 19.7673 25.7822 19.7673C26.2575 19.7673 26.6416 20.1515 26.6416 20.6267C26.6416 21.1019 26.2575 21.4861 25.7822 21.4861Z" fill="#441D06"/>
<path d="M32.6553 18.0488C32.18 18.0488 31.7959 17.6646 31.7959 17.1894V2.59204C31.7959 2.11681 32.18 1.73267 32.6553 1.73267C33.1305 1.73267 33.5146 2.11681 33.5146 2.59204V17.1894C33.5146 17.6646 33.1305 18.0488 32.6553 18.0488Z" fill="#441D06"/>
<path d="M32.6553 3.45141C32.18 3.45141 31.7959 3.06726 31.7959 2.59203C31.7959 2.11852 31.4109 1.73437 30.9365 1.73437C30.4613 1.73437 30.0771 1.35023 30.0771 0.875C30.0771 0.399766 30.4613 0.015625 30.9365 0.015625C32.3579 0.015625 33.5146 1.17148 33.5146 2.59203C33.5146 3.06726 33.1305 3.45141 32.6553 3.45141Z" fill="#441D06"/>
<path d="M29.2168 21.4861C28.7416 21.4861 28.3574 21.1019 28.3574 20.6267C28.3574 20.1515 28.7416 19.7673 29.2168 19.7673C30.6382 19.7673 31.7958 18.6106 31.7958 17.1892C31.7958 16.714 32.1799 16.3298 32.6552 16.3298C33.1304 16.3298 33.5145 16.714 33.5145 17.1892C33.5145 19.5585 31.587 21.4861 29.2168 21.4861Z" fill="#441D06"/>
<path d="M30.9368 1.73438H24.0635C23.5882 1.73438 23.2041 1.35023 23.2041 0.875C23.2041 0.399766 23.5882 0.015625 24.0635 0.015625H30.9368C31.412 0.015625 31.7961 0.399766 31.7961 0.875C31.7961 1.35023 31.412 1.73438 30.9368 1.73438Z" fill="#441D06"/>
<path d="M24.9219 12.8959C24.6933 12.8959 24.475 12.8057 24.3143 12.6441C24.1536 12.4826 24.0625 12.2652 24.0625 12.0366L24.0634 4.31079C24.0634 3.83556 24.4484 3.45142 24.9227 3.45142H30.0764C30.5508 3.45142 30.9358 3.83556 30.9358 4.31079L30.9366 12.0348C30.9366 12.5092 30.5525 12.8942 30.0773 12.8942L24.9219 12.8959ZM25.7821 5.17017L25.7813 11.1772L29.2179 11.1755L29.217 5.17017H25.7821Z" fill="#441D06"/>
<path d="M30.9363 15.4723C30.5763 15.4723 30.2411 15.2446 30.1216 14.8845L29.2623 12.3064C29.1119 11.8561 29.3551 11.3688 29.8054 11.2193C30.2583 11.0689 30.743 11.3121 30.8925 11.7624L31.7519 14.3405C31.9023 14.7909 31.6591 15.2781 31.2088 15.4277C31.1177 15.4586 31.0266 15.4723 30.9363 15.4723Z" fill="#441D06"/>
<path d="M24.0622 15.4722C23.9729 15.4722 23.8809 15.4576 23.7907 15.4275C23.3412 15.2771 23.0971 14.7907 23.2475 14.3404L24.1069 11.764C24.2573 11.3145 24.7386 11.0687 25.194 11.2209C25.6435 11.3712 25.8875 11.8577 25.7372 12.308L24.8778 14.8844C24.7575 15.2453 24.4223 15.4722 24.0622 15.4722Z" fill="#441D06"/>
<path d="M27.4988 16.3316C25.4097 16.3316 24.1593 16.0454 23.5646 15.4318C23.2251 15.0821 23.1985 14.7237 23.2037 14.5862C23.2191 14.1118 23.6162 13.7242 24.0888 13.7543C24.4291 13.7646 24.717 13.9717 24.8476 14.2639C25.0229 14.3576 25.6683 14.6128 27.4988 14.6128C29.3293 14.6128 29.9755 14.3576 30.1508 14.2639C30.2806 13.9717 30.5685 13.7646 30.9097 13.7543C31.3668 13.7277 31.7811 14.1118 31.7957 14.5862C31.8 14.7237 31.7733 15.0821 31.4339 15.4318C30.8392 16.0454 29.5888 16.3316 27.4988 16.3316Z" fill="#441D06"/>
<path d="M29.2171 21.4861H25.7822C25.307 21.4861 24.9229 21.1019 24.9229 20.6267C24.9229 20.1515 25.307 19.7673 25.7822 19.7673H29.2171C29.6924 19.7673 30.0765 20.1515 30.0765 20.6267C30.0765 21.1019 29.6924 21.4861 29.2171 21.4861Z" fill="#441D06"/>
<path d="M33.5146 12.894H32.6553C32.18 12.894 31.7959 12.5099 31.7959 12.0347C31.7959 11.5594 32.18 11.1753 32.6553 11.1753H33.5146C33.9899 11.1753 34.374 11.5594 34.374 12.0347C34.374 12.5099 33.9899 12.894 33.5146 12.894Z" fill="#441D06"/>
<path d="M22.3438 12.894H21.4844C21.0091 12.894 20.625 12.5099 20.625 12.0347C20.625 11.5594 21.0091 11.1753 21.4844 11.1753H22.3438C22.819 11.1753 23.2031 11.5594 23.2031 12.0347C23.2031 12.5099 22.819 12.894 22.3438 12.894Z" fill="#441D06"/>
<path d="M24.9236 5.1704C24.646 5.1704 24.3727 5.03634 24.2077 4.78798L22.2337 1.82743C21.9699 1.43212 22.0765 0.899305 22.4718 0.635476C22.8671 0.372507 23.3999 0.47907 23.6637 0.873523L25.6377 3.83407C25.9015 4.22938 25.795 4.7622 25.3997 5.02603C25.2527 5.12314 25.0869 5.1704 24.9236 5.1704Z" fill="#441D06"/>
<path d="M30.0768 5.16868C29.9135 5.16868 29.7468 5.12141 29.6007 5.0243C29.2054 4.76047 29.0988 4.2268 29.3626 3.83235L31.3366 0.873523C31.5996 0.47907 32.1333 0.372507 32.5286 0.635476C32.9239 0.899304 33.0305 1.43298 32.7666 1.82743L30.7926 4.78625C30.6276 5.03461 30.3544 5.16868 30.0768 5.16868Z" fill="#441D06"/>
<path d="M4.30078 36.1042C3.82555 36.1042 3.44141 35.72 3.44141 35.2448V20.6492C3.44141 20.1739 3.82555 19.7898 4.30078 19.7898C4.77602 19.7898 5.16016 20.1739 5.16016 20.6492V35.2448C5.16016 35.72 4.77602 36.1042 4.30078 36.1042Z" fill="#441D06"/>
<path d="M4.29981 21.5085C3.82457 21.5085 3.44043 21.1244 3.44043 20.6492C3.44043 19.2278 4.59801 18.071 6.01942 18.071C6.49465 18.071 6.87879 18.4552 6.87879 18.9304C6.87879 19.4057 6.49465 19.7898 6.01942 19.7898C5.54504 19.7898 5.15918 20.1748 5.15918 20.6492C5.15918 21.1244 4.77504 21.5085 4.29981 21.5085Z" fill="#441D06"/>
<path d="M7.73828 39.5415C6.59016 39.5415 5.51078 39.0946 4.69953 38.2842C3.88828 37.473 3.44055 36.3936 3.44141 35.2446C3.44141 34.7694 3.82641 34.3853 4.30078 34.3853C4.77602 34.3853 5.16016 34.7703 5.16016 35.2446C5.16016 35.9347 5.42828 36.5827 5.91469 37.0682C6.40109 37.5546 7.0482 37.8228 7.73828 37.8228C8.21352 37.8228 8.59766 38.2069 8.59766 38.6821C8.59766 39.1574 8.21352 39.5415 7.73828 39.5415Z" fill="#441D06"/>
<path d="M14.6113 36.1042C14.1361 36.1042 13.752 35.72 13.752 35.2448V20.6492C13.752 20.1739 14.1361 19.7898 14.6113 19.7898C15.0866 19.7898 15.4707 20.1739 15.4707 20.6492V35.2448C15.4707 35.72 15.0866 36.1042 14.6113 36.1042Z" fill="#441D06"/>
<path d="M14.6113 21.5085C14.1361 21.5085 13.752 21.1244 13.752 20.6492C13.752 20.1748 13.367 19.7898 12.8926 19.7898C12.4173 19.7898 12.0332 19.4057 12.0332 18.9304C12.0332 18.4552 12.4173 18.071 12.8926 18.071C14.314 18.071 15.4707 19.2278 15.4707 20.6492C15.4707 21.1244 15.0866 21.5085 14.6113 21.5085Z" fill="#441D06"/>
<path d="M11.1729 39.5415C10.6976 39.5415 10.3135 39.1574 10.3135 38.6821C10.3135 38.2069 10.6976 37.8228 11.1729 37.8228C12.5943 37.8228 13.7518 36.666 13.7518 35.2446C13.7518 34.7694 14.136 34.3853 14.6112 34.3853C15.0864 34.3853 15.4706 34.7694 15.4706 35.2446C15.4706 37.6139 13.543 39.5415 11.1729 39.5415Z" fill="#441D06"/>
<path d="M12.8928 19.7898H6.01953C5.5443 19.7898 5.16016 19.4057 5.16016 18.9304C5.16016 18.4552 5.5443 18.071 6.01953 18.071H12.8928C13.368 18.071 13.7522 18.4552 13.7522 18.9304C13.7522 19.4057 13.368 19.7898 12.8928 19.7898Z" fill="#441D06"/>
<path d="M12.0496 30.9514C12.0462 30.9522 12.0393 30.9514 12.0325 30.9514H6.87793C6.64934 30.9514 6.43105 30.8611 6.27035 30.6996C6.10965 30.538 6.01855 30.3197 6.01855 30.092L6.01941 22.3662C6.01941 21.891 6.40441 21.5068 6.87879 21.5068H12.0325C12.5068 21.5068 12.8918 21.891 12.8918 22.3662L12.8927 29.9201C12.9039 29.9751 12.9099 30.0335 12.9099 30.092C12.909 30.5672 12.5249 30.9514 12.0496 30.9514ZM7.73731 29.2326H11.1739L11.1731 23.2256H7.73816L7.73731 29.2326Z" fill="#441D06"/>
<path d="M12.8924 33.5296C12.5323 33.5296 12.1972 33.3018 12.0777 32.9417L11.2183 30.3636C11.0679 29.9133 11.3111 29.426 11.7614 29.2765C12.2152 29.1253 12.6982 29.3693 12.8486 29.8196L13.7079 32.3978C13.8583 32.8481 13.6151 33.3353 13.1648 33.4849C13.0737 33.5149 12.9818 33.5296 12.8924 33.5296Z" fill="#441D06"/>
<path d="M6.01828 33.5295C5.9289 33.5295 5.83695 33.5149 5.74672 33.4848C5.29726 33.3353 5.0532 32.8489 5.20359 32.3977L6.06297 29.8196C6.21336 29.3701 6.69547 29.1252 7.15007 29.2764C7.59953 29.426 7.84359 29.9124 7.6932 30.3635L6.83382 32.9417C6.71351 33.3017 6.37836 33.5295 6.01828 33.5295Z" fill="#441D06"/>
<path d="M9.45486 34.3889C7.364 34.3881 6.11447 34.1019 5.51978 33.4883C5.18119 33.1385 5.15455 32.781 5.15971 32.6435C5.17431 32.1786 5.55588 31.8108 6.01736 31.8108C6.02682 31.8108 6.03541 31.8108 6.04486 31.8116C6.38517 31.822 6.67307 32.0291 6.80369 32.3204C6.979 32.4141 7.62525 32.6693 9.45486 32.6702C11.2853 32.6702 11.9316 32.4149 12.1069 32.3213C12.2367 32.0291 12.5246 31.822 12.8657 31.8116C12.8752 31.8108 12.8838 31.8108 12.8932 31.8108C13.3547 31.8108 13.7363 32.1786 13.7509 32.6435C13.756 32.781 13.7294 33.1394 13.3899 33.4891C12.7953 34.1027 11.5449 34.3889 9.45486 34.3889Z" fill="#441D06"/>
<path d="M11.1732 39.5415H7.73828C7.26305 39.5415 6.87891 39.1574 6.87891 38.6821C6.87891 38.2069 7.26305 37.8228 7.73828 37.8228H11.1732C11.6484 37.8228 12.0326 38.2069 12.0326 38.6821C12.0326 39.1574 11.6484 39.5415 11.1732 39.5415Z" fill="#441D06"/>
<path d="M15.4707 30.9514H14.6113C14.1361 30.9514 13.752 30.5673 13.752 30.092C13.752 29.6168 14.1361 29.2327 14.6113 29.2327H15.4707C15.9459 29.2327 16.3301 29.6168 16.3301 30.092C16.3301 30.5673 15.9459 30.9514 15.4707 30.9514Z" fill="#441D06"/>
<path d="M4.2998 30.9514H3.44043C2.96519 30.9514 2.58105 30.5673 2.58105 30.092C2.58105 29.6168 2.96519 29.2327 3.44043 29.2327H4.2998C4.77504 29.2327 5.15918 29.6168 5.15918 30.092C5.15918 30.5673 4.77504 30.9514 4.2998 30.9514Z" fill="#441D06"/>
<path d="M6.87963 23.2255C6.60205 23.2255 6.32877 23.0915 6.16377 22.8431L4.18979 19.8843C3.92596 19.4898 4.03252 18.9562 4.42784 18.6923C4.82143 18.4294 5.35596 18.5351 5.61979 18.9304L7.59377 21.8892C7.8576 22.2837 7.75104 22.8173 7.35573 23.0812C7.20963 23.1783 7.04291 23.2255 6.87963 23.2255Z" fill="#441D06"/>
<path d="M12.0328 23.2238C11.8696 23.2238 11.7028 23.1766 11.5567 23.0795C11.1614 22.8156 11.0549 22.282 11.3187 21.8875L13.2927 18.9304C13.5565 18.5351 14.091 18.4294 14.4846 18.6923C14.8799 18.9562 14.9865 19.4898 14.7227 19.8843L12.7487 22.8414C12.5828 23.0898 12.3104 23.2238 12.0328 23.2238Z" fill="#441D06"/>
<path d="M27.5 39.5435C27.0248 39.5435 26.6406 39.1593 26.6406 38.6841V24.0713C26.6406 23.5961 27.0248 23.2119 27.5 23.2119C27.9752 23.2119 28.3594 23.5961 28.3594 24.0713V38.6841C28.3594 39.1593 27.9752 39.5435 27.5 39.5435Z" fill="#441D06"/>
<path d="M27.5002 39.5437C27.2802 39.5437 27.0602 39.4594 26.8926 39.2919C26.5566 38.9559 26.5566 38.4127 26.8926 38.0767L28.6114 36.358C28.9474 36.022 29.4905 36.022 29.8265 36.358C30.1626 36.694 30.1626 37.2371 29.8265 37.5731L28.1078 39.2919C27.9402 39.4594 27.7202 39.5437 27.5002 39.5437Z" fill="#441D06"/>
<path d="M27.5002 39.5437C27.2802 39.5437 27.0602 39.4594 26.8926 39.2919L25.1739 37.5731C24.8379 37.2371 24.8379 36.694 25.1739 36.358C25.5099 36.022 26.053 36.022 26.389 36.358L28.1078 38.0767C28.4438 38.4127 28.4438 38.9559 28.1078 39.2919C27.9402 39.4594 27.7202 39.5437 27.5002 39.5437Z" fill="#441D06"/>
</svg>
