<svg width="223" height="152" viewBox="0 0 223 152" fill="none" xmlns="http://www.w3.org/2000/svg">
<path d="M63.8528 144.391C47.1743 136.307 34.0246 122.407 26.8777 105.306C19.7307 88.2055 19.0791 69.0825 25.0455 51.5348C31.0118 33.9872 43.1848 19.2246 59.2744 10.0244C75.3639 0.82423 94.2609 -2.17937 112.41 1.5787C130.559 5.33677 146.71 15.5975 157.823 30.4304C168.936 45.2633 174.246 63.6459 172.753 82.12C171.261 100.594 163.069 117.886 149.719 130.742C136.369 143.599 118.781 151.134 100.263 151.93L100.16 149.512C118.087 148.742 135.115 141.447 148.04 129C160.965 116.552 168.896 99.8109 170.341 81.9251C171.786 64.0393 166.646 46.2419 155.886 31.8812C145.127 17.5206 129.491 7.5866 111.919 3.94818C94.3481 0.309766 76.0528 3.21773 60.4755 12.125C44.8982 21.0323 33.1128 35.3248 27.3364 52.3138C21.56 69.3027 22.1909 87.8169 29.1103 104.373C36.0297 120.93 48.7607 134.387 64.9081 142.213L63.8528 144.391Z" fill="#441D06"/>
<line x1="8" y1="150.75" x2="101" y2="150.75" stroke="#441D06" stroke-width="2.5"/>
<line x1="129" y1="150.75" x2="199" y2="150.75" stroke="#441D06" stroke-width="2.5"/>
<g clip-path="url(#clip0_1_4531)">
<path d="M90.0667 39V47.3413L72.6211 52.0156L78.9221 75.5339L75.1173 79.3387C74.8855 79.5687 74.5723 79.6988 74.2453 79.7H72.8V76H58V113H72.8V109.3H74.444C74.7108 109.301 74.9704 109.387 75.1842 109.547L78.8005 112.26C79.4412 112.739 80.2199 112.999 81.0202 113H132V39H90.0667ZM88.0282 80.9333L83.5754 64.3092C87.0935 62.7977 89.1965 59.1507 88.743 55.3489L90.0667 54.9978V80.9333H88.0282ZM90.0667 49.894V52.4432L85.8042 53.5778L86.1252 54.7732C86.5503 56.3522 86.3299 58.0354 85.5133 59.4524C84.6967 60.8694 83.3496 61.9028 81.77 62.3261L80.5764 62.6429L85.4748 80.9333H83.8717C83.3134 80.9333 82.825 80.5588 82.6805 80.0192L75.6503 53.759L90.0667 49.894ZM70.3333 110.533H60.4667V78.4667H70.3333V110.533ZM81.0226 110.533C80.7558 110.533 80.4963 110.446 80.2825 110.286L76.6662 107.573C76.0255 107.094 75.2468 106.835 74.4465 106.833H72.8V82.1667H74.2453C75.2275 82.1697 76.1694 81.7788 76.8613 81.0827L79.6598 78.2842L80.2952 80.6569C80.7281 82.2751 82.1945 83.4 83.8693 83.4H112.267C113.629 83.4 114.733 84.5045 114.733 85.8667C114.733 87.2289 113.629 88.3333 112.267 88.3333H96.2333V90.8H117.2C118.562 90.8 119.667 91.9045 119.667 93.2667C119.667 94.6289 118.562 95.7333 117.2 95.7333H96.2333V98.2H112.267C113.629 98.2 114.733 99.3045 114.733 100.667C114.733 102.029 113.629 103.133 112.267 103.133H96.2333V105.6H107.333C108.696 105.6 109.8 106.704 109.8 108.067C109.8 109.429 108.696 110.533 107.333 110.533H81.0226ZM116.514 98.2H117.2C119.924 98.2 122.133 95.9911 122.133 93.2667C122.133 90.5423 119.924 88.3333 117.2 88.3333H116.514C117.538 86.6279 117.406 84.4677 116.182 82.8996C119.964 80.0692 120.763 74.7233 117.974 70.9113C115.186 67.0993 109.849 66.2417 106.007 68.9878C102.165 71.7339 101.248 77.0611 103.951 80.9333H97.4667V53.7127C101.253 53.1598 104.227 50.1861 104.779 46.4H117.287C117.84 50.1861 120.814 53.1598 124.6 53.7127V98.2873C120.814 98.8402 117.84 101.814 117.287 105.6H112.267C114.991 105.6 117.2 103.391 117.2 100.667C117.195 99.7983 116.958 98.9467 116.514 98.2ZM107.359 80.9333C105.172 79.3122 104.307 76.448 105.23 73.8868C106.154 71.3256 108.649 69.6731 111.367 69.8219C114.086 69.97 116.385 71.8839 117.025 74.53C117.665 77.1767 116.494 79.9294 114.143 81.3031C113.548 81.058 112.91 80.9327 112.267 80.9333H107.359ZM129.533 110.533H111.581C112.025 109.787 112.262 108.935 112.267 108.067H119.667V106.833C119.671 103.429 122.429 100.671 125.833 100.667H127.067V51.3333H125.833C122.429 51.3291 119.671 48.571 119.667 45.1667V43.9333H102.4V45.1667C102.396 48.571 99.6376 51.3291 96.2333 51.3333H95V80.9333H92.5333V41.4667H129.533V110.533Z" fill="#441D06"/>
<path d="M109.8 55.0334H112.266V62.4334H109.8V55.0334Z" fill="#441D06"/>
</g>
<defs>
<clipPath id="clip0_1_4531">
<rect width="74" height="74" fill="white" transform="translate(58 39)"/>
</clipPath>
</defs>
</svg>
