<svg width="68" height="75" viewBox="0 0 68 75" fill="none" xmlns="http://www.w3.org/2000/svg">
<path d="M63.9316 26.8275H61.9899L62.0919 19.74C62.0797 19.3258 61.9189 18.9295 61.6386 18.6225L44.9568 0.5025C44.8228 0.350485 44.6588 0.227436 44.4749 0.140993C44.291 0.0545505 44.0912 0.00655952 43.8878 0L8.98306 0C8.20045 0.0124727 7.45325 0.32588 6.89874 0.874246C6.34423 1.42261 6.02566 2.16316 6.01011 2.94V26.8275H4.06466C2.98806 26.8275 1.94923 27.27 1.19371 28.0575C0.426865 28.845 0 29.9137 0 31.0312V52.8937C0 55.2112 1.82079 57.0938 4.06466 57.0938H6.01011V72.0563C6.02475 72.835 6.34393 73.5776 6.90016 74.127C7.45639 74.6763 8.20605 74.9894 8.99061 75H59.1492C60.7169 75 62.0957 73.68 62.0957 72.06V57.0975H63.9353C66.1792 57.0975 68 55.2113 68 52.89V31.0275C68 29.9175 67.5731 28.845 66.8101 28.0575C66.4399 27.6708 65.9947 27.3624 65.5013 27.151C65.0079 26.9396 64.4765 26.8296 63.9391 26.8275H63.9316ZM11.1438 5.1675H37.4206V22.3312C37.4191 22.7177 37.568 23.0898 37.8361 23.37C38.1043 23.6475 38.467 23.8013 38.8447 23.8013H56.8222V26.8275H11.1438V5.1675ZM11.1438 69.8325V57.0938H56.8222V69.8325H11.1438ZM42.6525 5.7L44.1069 7.3275L53.853 18.0263L54.3932 18.675H44.4318C43.6762 18.675 43.204 18.5513 43.0038 18.3C42.8036 18.0562 42.6865 17.6625 42.6525 17.1262V5.7ZM7.55514 53.37V30.87H14.8005C17.543 30.87 19.3336 30.9825 20.1647 31.2075C21.449 31.545 22.5219 32.28 23.3869 33.4125C24.2482 34.5412 24.6826 36 24.6826 37.7925C24.6826 39.1725 24.4333 40.335 23.9347 41.28C23.436 42.2175 22.8014 42.9562 22.0346 43.4925C21.3336 44.0004 20.5372 44.3638 19.6925 44.5613C18.6159 44.775 17.0557 44.8838 15.0121 44.8838H12.0693V53.37H7.55514ZM12.0693 34.6763V41.0625H14.5399C16.3191 41.0625 17.509 40.9425 18.1097 40.71C18.6902 40.4925 19.1875 40.0999 19.5317 39.5874C19.8759 39.0748 20.0497 38.4681 20.0287 37.8525C20.0562 37.1116 19.7997 36.388 19.3109 35.8275C18.8393 35.2989 18.1993 34.9468 17.4977 34.83C16.9613 34.7288 15.8771 34.68 14.249 34.68H12.0693V34.6763ZM27.3307 30.87H35.5809C37.4433 30.87 38.8598 31.0125 39.8382 31.3013C41.149 31.6875 42.271 32.3813 43.2078 33.3713C44.1409 34.365 44.8548 35.58 45.3422 37.0163C45.8332 38.4562 46.075 40.2262 46.075 42.3337C46.075 44.1862 45.8483 45.7837 45.3875 47.1225C44.8284 48.7612 44.0276 50.085 42.9925 51.0975C42.2105 51.8663 41.1528 52.4663 39.8193 52.8975C38.8258 53.2125 37.4924 53.37 35.8265 53.37H27.3307V30.87ZM31.8449 34.6763V49.5788H35.2145C36.4762 49.5788 37.3866 49.5075 37.9457 49.365C38.6785 49.1775 39.2867 48.87 39.7665 48.4275C40.25 47.9887 40.6466 47.265 40.9488 46.2562C41.2548 45.2475 41.4059 43.875 41.4059 42.135C41.4059 40.395 41.2548 39.06 40.9526 38.13C40.7127 37.3095 40.2714 36.5608 39.6682 35.9512C39.0852 35.411 38.3616 35.0434 37.5792 34.89C36.9484 34.7475 35.7131 34.6763 33.8772 34.6763H31.8449ZM48.8931 53.37V30.87H64.2187V34.6763H53.4073V40.0013H62.7379V43.8075H53.4073V53.37H48.8931Z" fill="currentColor"/>
</svg>
