<svg width="24" height="23" viewBox="0 0 24 23" fill="none" xmlns="http://www.w3.org/2000/svg">
<path d="M16.466 15.716L17.0265 15.153L15.7248 13.8306L15.1644 14.3936L16.466 15.716ZM18.909 14.9171L21.2602 16.2084L22.1419 14.57L19.7906 13.2788L18.909 14.9171ZM21.7128 18.7746L19.9645 20.5307L21.2661 21.8531L23.0144 20.097L21.7128 18.7746ZM18.8993 21.0961C17.1149 21.264 12.4984 21.1143 7.50005 16.0937L6.19843 17.4161C11.6529 22.8949 16.8443 23.1624 19.0706 22.9528L18.8993 21.0961ZM7.50005 16.0937C2.73562 11.3081 1.94639 7.28297 1.84815 5.53674L0.00510578 5.64255C0.12874 7.84036 1.10599 12.301 6.19843 17.4161L7.50005 16.0937ZM9.19263 8.41027L9.54559 8.05572L8.24402 6.73334L7.89105 7.08788L9.19263 8.41027ZM9.82655 3.53635L8.27473 1.44228L6.79694 2.55986L8.34875 4.65395L9.82655 3.53635ZM3.05538 0.986486L1.12371 2.92677L2.42533 4.24915L4.357 2.30887L3.05538 0.986486ZM8.54184 7.74908C7.89105 7.08788 7.89016 7.08877 7.88928 7.08966C7.88898 7.08996 7.8881 7.09087 7.88749 7.09148C7.88629 7.09271 7.88506 7.09395 7.88381 7.09523C7.88131 7.09781 7.87873 7.10048 7.87607 7.10326C7.87074 7.10885 7.86511 7.11489 7.85917 7.1214C7.8473 7.13442 7.83427 7.14931 7.82031 7.16613C7.79241 7.19976 7.76079 7.24117 7.72757 7.29072C7.66095 7.39004 7.58836 7.52136 7.52677 7.68651C7.40108 8.02348 7.3337 8.4677 7.41817 9.01776C7.58338 10.0935 8.31675 11.5145 10.1954 13.4014L11.497 12.079C9.73893 10.3131 9.32013 9.23848 9.24235 8.73187C9.20531 8.49077 9.2437 8.37211 9.25429 8.34401C9.26069 8.32663 9.26376 8.32485 9.25589 8.33672C9.25195 8.34253 9.24543 8.35162 9.23521 8.36386C9.23016 8.36999 9.22413 8.37693 9.21712 8.38466C9.21355 8.38853 9.20986 8.39259 9.20567 8.39686C9.20371 8.399 9.20161 8.40117 9.1994 8.40341C9.19829 8.40453 9.19718 8.40566 9.19607 8.4068C9.19558 8.40738 9.19472 8.40825 9.19435 8.40853C9.19349 8.4094 9.19263 8.41027 8.54184 7.74908ZM10.1954 13.4014C12.0746 15.289 13.4878 16.0236 14.5545 16.189C15.0995 16.2734 15.539 16.206 15.8724 16.0806C16.0358 16.019 16.166 15.9465 16.2645 15.8799C16.3137 15.8466 16.3548 15.8149 16.3882 15.7869C16.4049 15.773 16.4197 15.7599 16.4326 15.748C16.4391 15.742 16.4452 15.7364 16.4507 15.7311C16.4535 15.7283 16.4561 15.7257 16.4587 15.7233C16.4599 15.722 16.4612 15.7208 16.4624 15.7195C16.463 15.7189 16.464 15.718 16.4642 15.7178C16.4651 15.7169 16.466 15.716 15.8152 15.0548C15.1644 14.3936 15.1652 14.3928 15.1661 14.3919C15.1664 14.3916 15.1672 14.3908 15.1678 14.3901C15.1689 14.389 15.17 14.3879 15.1712 14.3868C15.1735 14.3847 15.1756 14.3826 15.1777 14.3804C15.182 14.3763 15.186 14.3726 15.1899 14.369C15.1975 14.362 15.2044 14.356 15.2105 14.351C15.2226 14.3408 15.2316 14.3343 15.2371 14.3305C15.2486 14.3228 15.2462 14.3262 15.228 14.3331C15.1979 14.3444 15.0771 14.3833 14.8344 14.3456C14.3258 14.2669 13.2545 13.8442 11.497 12.079L10.1954 13.4014ZM8.27473 1.44228C7.02028 -0.25048 4.55353 -0.518332 3.05538 0.986486L4.357 2.30887C5.01133 1.65162 6.17344 1.71852 6.79694 2.55986L8.27473 1.44228ZM1.84815 5.53674C1.82394 5.10645 2.0193 4.65698 2.42533 4.24915L1.12371 2.92677C0.462439 3.59098 -0.0574251 4.53123 0.00510578 5.64255L1.84815 5.53674ZM19.9645 20.5307C19.6263 20.8704 19.2638 21.0618 18.8993 21.0961L19.0706 22.9528C19.9746 22.8677 20.7154 22.4063 21.2661 21.8531L19.9645 20.5307ZM9.54559 8.05572C10.7572 6.83871 10.8473 4.9137 9.82655 3.53635L8.34875 4.65395C8.84533 5.32402 8.77149 6.20352 8.24402 6.73334L9.54559 8.05572ZM21.2602 16.2084C22.2666 16.7611 22.4234 18.0608 21.7128 18.7746L23.0144 20.097C24.6639 18.4402 24.1552 15.6756 22.1419 14.57L21.2602 16.2084ZM17.0265 15.153C17.4991 14.6783 18.2598 14.5607 18.909 14.9171L19.7906 13.2788C18.4571 12.5465 16.8021 12.7487 15.7248 13.8306L17.0265 15.153Z" fill="currentColor"/>
</svg>
