<svg width="35" height="35" viewBox="0 0 35 35" fill="none" xmlns="http://www.w3.org/2000/svg">
<path d="M27.9278 9.63422L24.9552 6.66432C24.7455 6.4537 24.4962 6.28659 24.2218 6.17259C23.9473 6.05858 23.653 5.99993 23.3558 6C22.7501 6 22.1807 6.23726 21.7536 6.66432L18.5549 9.86311C18.3443 10.0728 18.1772 10.322 18.0632 10.5965C17.9492 10.871 17.8905 11.1653 17.8906 11.4625C17.8906 12.0682 18.1279 12.6376 18.5549 13.0647L20.894 15.4038C20.3464 16.6106 19.5852 17.7085 18.647 18.6444C17.7112 19.5849 16.6134 20.3489 15.4064 20.8998L13.0674 18.5607C12.8577 18.3501 12.6084 18.1829 12.334 18.0689C12.0595 17.9549 11.7652 17.8963 11.468 17.8964C10.8623 17.8964 10.2929 18.1336 9.86584 18.5607L6.66431 21.7567C6.45344 21.9668 6.28618 22.2165 6.17218 22.4914C6.05817 22.7664 5.99965 23.0612 6 23.3589C6 23.9646 6.23726 24.534 6.66431 24.961L9.63138 27.9282C10.3124 28.612 11.2531 29 12.2188 29C12.4226 29 12.618 28.9833 12.8106 28.9498C16.5731 28.3301 20.305 26.3288 23.3167 23.3198C26.3257 20.3136 28.3242 16.5845 28.9522 12.8107C29.142 11.6579 28.7596 10.4716 27.9278 9.63422Z" fill="currentColor"/>
</svg>
