<svg width="32" height="32" viewBox="0 0 32 32" fill="none" xmlns="http://www.w3.org/2000/svg">
<path d="M29.7931 13.7931H18.2069V2.2069C18.2069 0.993103 17.2138 0 16 0C14.7862 0 13.7931 0.993103 13.7931 2.2069V13.7931H2.2069C0.993103 13.7931 0 14.7862 0 16C0 17.2138 0.993103 18.2069 2.2069 18.2069H13.7931V29.7931C13.7931 31.0069 14.7862 32 16 32C17.2138 32 18.2069 31.0069 18.2069 29.7931V18.2069H29.7931C31.0069 18.2069 32 17.2138 32 16C32 14.7862 31.0069 13.7931 29.7931 13.7931Z" fill="currentColor"/>
</svg>
