<svg width="58" height="58" viewBox="0 0 58 58" fill="none" xmlns="http://www.w3.org/2000/svg">
<circle cx="29" cy="29" r="29" fill="#441D06"/>
<path d="M30 35.9998C29.8259 35.9998 29.6549 35.9544 29.5038 35.868L20.75 30.8648C20.6739 30.8209 20.5876 30.7978 20.4998 30.7979C20.412 30.7979 20.3257 30.8211 20.2497 30.865C20.1736 30.909 20.1105 30.9722 20.0667 31.0483C20.0229 31.1244 19.9999 31.2108 20 31.2986V35.9998C19.9999 36.1783 20.0475 36.3536 20.1379 36.5075C20.2284 36.6613 20.3584 36.7882 20.5144 36.8748L29.5144 41.8748C29.6629 41.9574 29.8301 42.0007 30 42.0007C30.1699 42.0007 30.3371 41.9574 30.4856 41.8748L39.4856 36.8748C39.6416 36.7882 39.7716 36.6613 39.8621 36.5075C39.9525 36.3536 40.0001 36.1783 40 35.9998V31.2986C40.0001 31.2108 39.9771 31.1244 39.9333 31.0483C39.8895 30.9722 39.8264 30.909 39.7503 30.865C39.6743 30.8211 39.588 30.7979 39.5002 30.7979C39.4124 30.7978 39.3261 30.8209 39.25 30.8648L30.4963 35.868C30.3451 35.9544 30.1741 35.9998 30 35.9998Z" fill="#FF9900"/>
<path d="M44.9951 24.9062V24.8993C44.9789 24.7408 44.9251 24.5885 44.8381 24.455C44.7511 24.3215 44.6335 24.2107 44.4951 24.1318L30.4951 16.1318C30.3439 16.0454 30.1729 16 29.9988 16C29.8247 16 29.6537 16.0454 29.5026 16.1318L15.5026 24.1318C15.3495 24.2193 15.2224 24.3457 15.1339 24.4981C15.0455 24.6506 14.9989 24.8237 14.9989 24.9999C14.9989 25.1762 15.0455 25.3493 15.1339 25.5018C15.2224 25.6542 15.3495 25.7806 15.5026 25.8681L29.5026 33.8681C29.6537 33.9545 29.8247 33.9999 29.9988 33.9999C30.1729 33.9999 30.3439 33.9545 30.4951 33.8681L42.8126 26.8299C42.8316 26.819 42.8532 26.8132 42.8752 26.8132C42.8972 26.8132 42.9188 26.819 42.9378 26.8301C42.9568 26.8411 42.9726 26.8569 42.9835 26.876C42.9944 26.8951 43.0001 26.9167 43.0001 26.9387V35.9718C43.0001 36.5099 43.4138 36.9718 43.9519 36.9987C44.0871 37.0052 44.2223 36.9842 44.3491 36.937C44.476 36.8897 44.5919 36.8172 44.6899 36.7238C44.7879 36.6304 44.8659 36.5181 44.9192 36.3937C44.9725 36.2693 45 36.1353 45.0001 35.9999V24.9999C45 24.9686 44.9983 24.9373 44.9951 24.9062Z" fill="#FF9900"/>
</svg>
