<svg width="58" height="58" viewBox="0 0 58 58" fill="none" xmlns="http://www.w3.org/2000/svg">
<circle cx="29" cy="29" r="29" fill="#441D06"/>
<path d="M24.125 43.1111C25.4674 43.1111 26.5556 42.0229 26.5556 40.6806C26.5556 39.3382 25.4674 38.25 24.125 38.25C22.7827 38.25 21.6945 39.3382 21.6945 40.6806C21.6945 42.0229 22.7827 43.1111 24.125 43.1111Z" fill="#FF9900"/>
<path d="M36.7639 43.1111C38.1063 43.1111 39.1945 42.0229 39.1945 40.6806C39.1945 39.3382 38.1063 38.25 36.7639 38.25C35.4216 38.25 34.3334 39.3382 34.3334 40.6806C34.3334 42.0229 35.4216 43.1111 36.7639 43.1111Z" fill="#FF9900"/>
<path d="M43.1807 18.2124C43.0902 18.0948 42.9739 17.9994 42.8407 17.9337C42.7076 17.868 42.5612 17.8336 42.4127 17.8333H19.9543L19.5168 16.443C19.4688 16.2937 19.3853 16.1583 19.2736 16.0482C19.1619 15.9382 19.0252 15.8568 18.8752 15.811L14.8891 14.586C14.7665 14.5484 14.6377 14.5352 14.5101 14.5473C14.3824 14.5594 14.2584 14.5966 14.1451 14.6566C13.9163 14.7779 13.745 14.985 13.6689 15.2326C13.5929 15.4801 13.6182 15.7477 13.7395 15.9765C13.8607 16.2054 14.0679 16.3766 14.3155 16.4527L17.8057 17.5222L22.2585 31.5902L20.6738 32.893L20.5474 33.0194C20.1555 33.4732 19.9335 34.049 19.9193 34.6485C19.9051 35.2479 20.0996 35.8337 20.4696 36.3055C20.7346 36.6277 21.0713 36.8835 21.4529 37.0523C21.8344 37.2211 22.2501 37.2983 22.6668 37.2777H38.8932C39.1511 37.2777 39.3984 37.1753 39.5807 36.993C39.763 36.8106 39.8655 36.5633 39.8655 36.3055C39.8655 36.0476 39.763 35.8003 39.5807 35.618C39.3984 35.4357 39.1511 35.3333 38.8932 35.3333H22.5113C22.3993 35.3294 22.2903 35.2968 22.1946 35.2385C22.0989 35.1802 22.0199 35.0983 21.9652 35.0005C21.9105 34.9028 21.8819 34.7926 21.8821 34.6806C21.8824 34.5685 21.9116 34.4585 21.9668 34.361L24.3099 32.4166H39.3113C39.5334 32.4231 39.751 32.3533 39.9279 32.2188C40.1048 32.0844 40.2303 31.8934 40.2835 31.6777L43.3946 19.0388C43.4242 18.8939 43.4203 18.7441 43.3832 18.6009C43.3462 18.4577 43.2769 18.3248 43.1807 18.2124Z" fill="#FF9900"/>
</svg>
