<svg width="35" height="30" viewBox="0 0 35 30" fill="none" xmlns="http://www.w3.org/2000/svg">
<path fill-rule="evenodd" clip-rule="evenodd" d="M31.373 0.209686C33.2673 -0.590563 35.2981 1.01656 34.9636 3.05127L31.0129 27.0843C30.6319 29.4015 28.0952 30.7311 25.9763 29.5763C24.2032 28.6101 21.5725 27.1229 19.2017 25.5686C18.0178 24.7924 14.3927 22.3036 14.8383 20.532C15.2192 19.0171 21.3134 13.3256 24.7959 9.94076C26.1638 8.61117 25.5408 7.84307 23.9253 9.06726C19.9177 12.1041 13.4834 16.7212 11.3557 18.0206C9.47841 19.167 8.49822 19.3627 7.32906 19.167C5.19407 18.8101 3.21467 18.2574 1.59866 17.5853C-0.585511 16.6768 -0.479121 13.6654 1.59718 12.7884L31.373 0.209686Z" fill="white"/>
</svg>
