<svg width="31" height="26" viewBox="0 0 31 26" fill="none" xmlns="http://www.w3.org/2000/svg">
<g clip-path="url(#clip0_749_3934)">
<path d="M28.2387 1.5C29.1016 1.5 29.7525 2.25688 29.4043 3.66467L25.181 23.5706C24.8858 24.9859 24.0305 25.3265 22.8498 24.6681L12.7757 17.2279C12.7366 17.1999 12.7048 17.163 12.6829 17.1202C12.6609 17.0774 12.6495 17.03 12.6495 16.982C12.6495 16.9339 12.6609 16.8865 12.6829 16.8437C12.7048 16.8009 12.7366 16.764 12.7757 16.736L24.4089 6.23049C24.9388 5.76123 24.2954 5.53416 23.5991 5.95802L8.99889 15.1692C8.95461 15.1981 8.90434 15.2165 8.85188 15.2231C8.79942 15.2296 8.74616 15.2242 8.69614 15.2071L2.4973 13.2468C1.11978 12.8456 1.11978 11.8995 2.80762 11.2259L27.6105 1.65894C27.8072 1.56458 28.0208 1.51053 28.2387 1.5Z" stroke="currentColor" stroke-linecap="round" stroke-linejoin="round"/>
</g>
<defs>
<clipPath id="clip0_749_3934">
<rect width="30" height="25" fill="currentColor" transform="translate(0.5 0.5)"/>
</clipPath>
</defs>
</svg>
