<svg width="35" height="35" viewBox="0 0 35 35" fill="none" xmlns="http://www.w3.org/2000/svg">
<path d="M17.989 6C11.917 6 7 10.928 7 17C7 23.072 11.917 28 17.989 28C24.072 28 29 23.072 29 17C29 10.928 24.072 6 17.989 6ZM22.4 21.4C22.2982 21.502 22.1774 21.5829 22.0443 21.6381C21.9112 21.6933 21.7686 21.7217 21.6245 21.7217C21.4804 21.7217 21.3378 21.6933 21.2047 21.6381C21.0716 21.5829 20.9508 21.502 20.849 21.4L17.23 17.781C17.1261 17.6791 17.0434 17.5576 16.9867 17.4236C16.9301 17.2895 16.9006 17.1455 16.9 17V12.6C16.9 11.995 17.395 11.5 18 11.5C18.605 11.5 19.1 11.995 19.1 12.6V16.549L22.4 19.849C22.829 20.278 22.829 20.971 22.4 21.4Z" fill="currentColor"/>
</svg>
