<svg width="191" height="152" viewBox="0 0 191 152" fill="none" xmlns="http://www.w3.org/2000/svg">
<path d="M108.18 45.2656H72.8203C70.7034 45.268 68.6739 46.1099 67.1771 47.6068C65.6802 49.1036 64.8383 51.1331 64.8359 53.25V96.5938C64.8369 97.501 65.1978 98.3708 65.8393 99.0123C66.4808 99.6538 67.3506 100.015 68.2578 100.016H75.1016C76.0088 100.015 76.8786 99.6538 77.5201 99.0123C78.1616 98.3708 78.5225 97.501 78.5234 96.5938V90.8906H102.477V96.5938C102.478 97.501 102.838 98.3708 103.48 99.0123C104.121 99.6538 104.991 100.015 105.898 100.016H112.742C113.649 100.015 114.519 99.6538 115.161 99.0123C115.802 98.3708 116.163 97.501 116.164 96.5938V53.25C116.162 51.1331 115.32 49.1036 113.823 47.6068C112.326 46.1099 110.297 45.268 108.18 45.2656V45.2656ZM67.1172 88.6094V70.3594H113.883V88.6094H67.1172ZM67.1172 56.6719H113.883V68.0781H67.1172V56.6719ZM72.8203 47.5469H108.18C109.692 47.5485 111.141 48.1499 112.211 49.2191C113.28 50.2883 113.881 51.7379 113.883 53.25V54.3906H67.1172V53.25C67.1188 51.7379 67.7202 50.2883 68.7894 49.2191C69.8586 48.1499 71.3083 47.5485 72.8203 47.5469ZM76.2422 96.5938C76.2419 96.8962 76.1216 97.1861 75.9078 97.4C75.6939 97.6138 75.404 97.7341 75.1016 97.7344H68.2578C67.9554 97.7341 67.6654 97.6138 67.4516 97.4C67.2378 97.1861 67.1175 96.8962 67.1172 96.5938V90.8906H76.2422V96.5938ZM112.742 97.7344H105.898C105.596 97.7341 105.306 97.6138 105.092 97.4C104.878 97.1861 104.758 96.8962 104.758 96.5938V90.8906H113.883V96.5938C113.883 96.8962 113.762 97.1861 113.548 97.4C113.335 97.6138 113.045 97.7341 112.742 97.7344ZM80.2344 79.4844C80.2344 79.9356 80.1006 80.3766 79.8499 80.7518C79.5992 81.1269 79.243 81.4193 78.8261 81.592C78.4093 81.7646 77.9506 81.8098 77.5081 81.7218C77.0656 81.6338 76.6591 81.4165 76.34 81.0975C76.021 80.7784 75.8037 80.3719 75.7157 79.9294C75.6277 79.4869 75.6729 79.0282 75.8455 78.6114C76.0182 78.1945 76.3106 77.8382 76.6857 77.5876C77.0609 77.3369 77.5019 77.2031 77.9531 77.2031C78.5579 77.2039 79.1377 77.4445 79.5654 77.8721C79.993 78.2998 80.2336 78.8796 80.2344 79.4844V79.4844ZM105.328 79.4844C105.328 79.9356 105.194 80.3766 104.944 80.7518C104.693 81.1269 104.337 81.4193 103.92 81.592C103.503 81.7646 103.044 81.8098 102.602 81.7218C102.159 81.6338 101.753 81.4165 101.434 81.0975C101.115 80.7784 100.897 80.3719 100.809 79.9294C100.721 79.4869 100.767 79.0282 100.939 78.6114C101.112 78.1945 101.404 77.8382 101.779 77.5876C102.155 77.3369 102.596 77.2031 103.047 77.2031C103.652 77.2039 104.231 77.4445 104.659 77.8721C105.087 78.2998 105.327 78.8796 105.328 79.4844V79.4844Z" fill="#441D06"/>
<line x1="121" y1="150.75" x2="191" y2="150.75" stroke="#441D06" stroke-width="2.5"/>
<line y1="150.75" x2="93" y2="150.75" stroke="#441D06" stroke-width="2.5"/>
<path d="M55.8528 144.391C39.1743 136.307 26.0246 122.407 18.8777 105.306C11.7307 88.2055 11.0791 69.0824 17.0455 51.5348C23.0118 33.9872 35.1848 19.2246 51.2744 10.0244C67.3639 0.82423 86.2609 -2.17937 104.41 1.5787C122.559 5.33677 138.71 15.5975 149.823 30.4304C160.936 45.2633 166.246 63.6459 164.753 82.12C163.261 100.594 155.069 117.886 141.719 130.742C128.369 143.599 110.781 151.134 92.2635 151.93L92.1596 149.512C110.087 148.742 127.115 141.447 140.04 129C152.965 116.552 160.896 99.8109 162.341 81.9251C163.786 64.0393 158.646 46.2419 147.886 31.8812C137.127 17.5206 121.491 7.5866 103.919 3.94818C86.3481 0.309766 68.0528 3.21773 52.4755 12.125C36.8982 21.0323 25.1128 35.3248 19.3364 52.3138C13.56 69.3027 14.1909 87.8169 21.1103 104.373C28.0297 120.93 40.7607 134.387 56.9081 142.213L55.8528 144.391Z" fill="#441D06"/>
</svg>
