<svg width="58" height="58" viewBox="0 0 58 58" fill="none" xmlns="http://www.w3.org/2000/svg">
<circle cx="29" cy="29" r="29" fill="#441D06"/>
<path d="M42 20.5V34C42 35.065 41.43 36.04 40.5 36.58V38.875C40.5 39.49 39.99 40 39.375 40H38.625C38.01 40 37.5 39.49 37.5 38.875V37H27V38.875C27 39.49 26.49 40 25.875 40H25.125C24.51 40 24 39.49 24 38.875V36.58C23.085 36.04 22.5 35.065 22.5 34V20.5C22.5 16 27 16 32.25 16C37.5 16 42 16 42 20.5ZM28.5 32.5C28.5 31.675 27.825 31 27 31C26.175 31 25.5 31.675 25.5 32.5C25.5 33.325 26.175 34 27 34C27.825 34 28.5 33.325 28.5 32.5ZM39 32.5C39 31.675 38.325 31 37.5 31C36.675 31 36 31.675 36 32.5C36 33.325 36.675 34 37.5 34C38.325 34 39 33.325 39 32.5ZM39 20.5H25.5V26.5H39V20.5ZM19.5 24.25C19.455 22.18 17.745 20.5 15.675 20.575C14.6805 20.5951 13.7347 21.0093 13.0455 21.7266C12.3564 22.4439 11.9803 23.4055 12 24.4C12.0196 25.2508 12.3268 26.0699 12.8717 26.7236C13.4165 27.3774 14.1667 27.8273 15 28V40H16.5V28C18.27 27.64 19.5 26.065 19.5 24.25Z" fill="#FF9900"/>
</svg>
