<svg width="35" height="20" viewBox="0 0 35 20" fill="none" xmlns="http://www.w3.org/2000/svg">
<path d="M21.1936 9.62032C20.5536 9.3839 20.5536 8.48099 20.5139 7.85222C20.3539 5.61255 21.1539 2.1933 20.1939 0.739589C19.5142 -0.125597 16.2336 -0.0463725 14.2343 0.071836C13.6737 0.151061 12.994 0.268013 12.514 0.50443C12.034 0.740847 11.554 1.1332 11.554 1.48657C11.554 1.99713 12.7546 1.91916 13.1937 2.58691C13.6737 3.29491 13.6737 4.82659 13.6737 6.08412C13.6737 7.53784 13.433 9.46439 12.834 9.54235C11.9137 9.58134 11.394 8.67717 10.914 8.00941C9.95402 6.71289 8.99403 5.10073 8.2734 3.52881C7.91373 2.70386 7.71277 1.79969 7.1931 1.44633C6.39311 0.895524 4.95312 0.85654 3.55282 0.895524C2.27284 0.934508 0.432221 0.777316 0.0725453 1.52429C-0.207771 2.34924 0.392541 3.1352 0.712537 3.80421C2.3522 7.30142 4.11217 10.3673 6.27279 13.2747C8.2734 15.986 10.1524 18.1477 13.8324 19.287C14.873 19.6014 19.4323 20.5056 20.3526 19.287C20.6726 18.8154 20.5932 17.7541 20.7532 16.9681C20.9132 16.1822 21.1129 15.3962 21.8732 15.3572C22.5132 15.3182 22.8729 15.8678 23.2735 16.2614C23.7138 16.694 24.0735 17.0473 24.3935 17.4409C25.1538 18.1879 25.9538 19.209 26.9138 19.6027C28.2335 20.1535 30.2738 19.9963 32.1937 19.917C33.754 19.8781 34.874 19.5637 34.9943 18.6595C35.075 17.9515 34.2737 16.9304 33.7937 16.3406C32.5931 14.8869 32.0337 14.4543 30.6731 13.1175C30.0728 12.5277 29.3125 11.899 29.3125 11.1922C29.2728 10.7596 29.6325 10.3673 29.9525 9.9347C31.3528 7.89121 32.7531 6.43749 34.0331 4.31477C34.3928 3.686 35.2337 2.23229 34.9137 1.52429C34.554 0.738332 32.5534 0.973491 31.3131 0.973491C29.7131 0.973491 27.6332 0.855282 27.2325 1.16967C26.4722 1.68023 26.1522 2.50643 25.7925 3.29239C24.9926 5.10073 23.9122 6.9468 22.7923 8.32254C22.3916 8.79412 21.6326 9.77625 21.1923 9.61906L21.1936 9.62032Z" fill="white"/>
</svg>
