<svg width="61" height="77" viewBox="0 0 61 77" fill="none" xmlns="http://www.w3.org/2000/svg">
<path d="M59.6076 19.5197L41.324 1.23613C40.8143 0.726367 40.1261 0.4375 39.4039 0.4375H3.3125C1.80869 0.4375 0.59375 1.65244 0.59375 3.15625V73.8438C0.59375 75.3476 1.80869 76.5625 3.3125 76.5625H57.6875C59.1913 76.5625 60.4062 75.3476 60.4062 73.8438V21.4483C60.4062 20.7262 60.1174 20.0295 59.6076 19.5197ZM54.1361 22.6973H38.1465V6.70762L54.1361 22.6973ZM54.2891 70.4453H6.71094V6.55469H32.3691V24.9062C32.3691 25.8526 32.7451 26.7603 33.4143 27.4295C34.0835 28.0987 34.9911 28.4746 35.9375 28.4746H54.2891V70.4453ZM31.8679 35.1016H29.1321C28.6648 35.1016 28.257 35.4159 28.1466 35.8747L23.924 52.7734L20.0073 35.8917C19.8969 35.4329 19.4891 35.1016 19.0133 35.1016H16.0057C15.8494 35.1018 15.6952 35.1379 15.5551 35.2071C15.415 35.2763 15.2926 35.3767 15.1974 35.5007C15.1022 35.6246 15.0367 35.7687 15.006 35.9219C14.9752 36.0752 14.9801 36.2334 15.0201 36.3845L21.3242 59.8337C21.4432 60.2755 21.851 60.5898 22.3098 60.5898H25.0285C25.4873 60.5898 25.8951 60.284 26.0141 59.8337L30.5 43.0964L34.9859 59.8337C35.1049 60.2755 35.5127 60.5898 35.9715 60.5898H38.6732C39.132 60.5898 39.5398 60.284 39.6588 59.8337L45.9799 36.3845C46.0196 36.2334 46.0242 36.0753 45.9933 35.9222C45.9624 35.7691 45.8969 35.6252 45.8017 35.5013C45.7066 35.3775 45.5844 35.2771 45.4444 35.2078C45.3045 35.1385 45.1505 35.1021 44.9943 35.1016H41.9697C41.4939 35.1016 41.0861 35.4329 40.9757 35.8917L37.0845 52.8074L32.8534 35.8747C32.743 35.4159 32.3352 35.1016 31.8679 35.1016Z" fill="currentColor"/>
</svg>
